<?xml version="1.0" encoding="UTF-8" standalone="no"?><svg xmlns="http://www.w3.org/2000/svg" xmlns:xlink="http://www.w3.org/1999/xlink" contentStyleType="text/css" height="837px" preserveAspectRatio="none" style="width:2449px;height:837px;background:#FFFFFF;" version="1.1" viewBox="0 0 2449 837" width="2449px" zoomAndPan="magnify"><defs/><g><!--cluster command--><g id="cluster_command"><path d="M8.5,6 L86.5,6 A3.75,3.75 0 0 1 89,8.5 L96,28.2969 L1753.5,28.2969 A2.5,2.5 0 0 1 1756,30.7969 L1756,415.5 A2.5,2.5 0 0 1 1753.5,418 L8.5,418 A2.5,2.5 0 0 1 6,415.5 L6,8.5 A2.5,2.5 0 0 1 8.5,6 " fill="none" style="stroke:#000000;stroke-width:1.5;"/><line style="stroke:#000000;stroke-width:1.5;" x1="6" x2="96" y1="28.2969" y2="28.2969"/><text fill="#000000" font-family="sans-serif" font-size="14" font-weight="bold" lengthAdjust="spacing" textLength="77" x="10" y="20.9951">command</text></g><!--cluster query--><g id="cluster_query"><path d="M1798.5,109.5 L1845.5,109.5 A3.75,3.75 0 0 1 1848,112 L1855,131.7969 L2439.5,131.7969 A2.5,2.5 0 0 1 2442,134.2969 L2442,312 A2.5,2.5 0 0 1 2439.5,314.5 L1798.5,314.5 A2.5,2.5 0 0 1 1796,312 L1796,112 A2.5,2.5 0 0 1 1798.5,109.5 " fill="none" style="stroke:#000000;stroke-width:1.5;"/><line style="stroke:#000000;stroke-width:1.5;" x1="1796" x2="1855" y1="131.7969" y2="131.7969"/><text fill="#000000" font-family="sans-serif" font-size="14" font-weight="bold" lengthAdjust="spacing" textLength="46" x="1800" y="124.4951">query</text></g><!--cluster type--><g id="cluster_type"><path d="M627.5,458 L664.5,458 A3.75,3.75 0 0 1 667,460.5 L674,480.2969 L1819.5,480.2969 A2.5,2.5 0 0 1 1822,482.7969 L1822,827.5 A2.5,2.5 0 0 1 1819.5,830 L627.5,830 A2.5,2.5 0 0 1 625,827.5 L625,460.5 A2.5,2.5 0 0 1 627.5,458 " fill="none" style="stroke:#000000;stroke-width:1.5;"/><line style="stroke:#000000;stroke-width:1.5;" x1="625" x2="674" y1="480.2969" y2="480.2969"/><text fill="#000000" font-family="sans-serif" font-size="14" font-weight="bold" lengthAdjust="spacing" textLength="36" x="629" y="472.9951">type</text></g><!--class BankAccount--><g id="elem_BankAccount"><rect codeLine="7" fill="#F1F1F1" height="345.3438" id="BankAccount" rx="2.5" ry="2.5" style="stroke:#181818;stroke-width:0.5;" width="715" x="467.5" y="49"/><ellipse cx="773.75" cy="65" fill="#ADD1B2" rx="11" ry="11" style="stroke:#181818;stroke-width:1.0;"/><path d="M777.8594,71 L770.1406,71 L770.1406,58.6094 L777.8594,58.6094 L777.8594,60.7656 L772.5938,60.7656 L772.5938,63.4375 L777.3594,63.4375 L777.3594,65.5938 L772.5938,65.5938 L772.5938,68.8438 L777.8594,68.8438 L777.8594,71 Z " fill="#000000"/><text fill="#000000" font-family="sans-serif" font-size="14" lengthAdjust="spacing" textLength="94" x="794.25" y="69.8467">BankAccount</text><line style="stroke:#181818;stroke-width:0.5;" x1="468.5" x2="1181.5" y1="81" y2="81"/><rect fill="none" height="6" style="stroke:#C82930;stroke-width:1.0;" width="6" x="475.5" y="91.6484"/><text fill="#000000" font-family="sans-serif" font-size="14" lengthAdjust="spacing" textLength="154" x="487.5" y="97.9951">accountId: AccountId,</text><rect fill="none" height="6" style="stroke:#C82930;stroke-width:1.0;" width="6" x="475.5" y="107.9453"/><text fill="#000000" font-family="sans-serif" font-size="14" lengthAdjust="spacing" textLength="265" x="487.5" y="114.292">balanceModel: BankAccountBalance,</text><rect fill="none" height="6" style="stroke:#C82930;stroke-width:1.0;" width="6" x="475.5" y="124.2422"/><text fill="#000000" font-family="sans-serif" font-size="14" lengthAdjust="spacing" textLength="324" x="487.5" y="130.5889">activeMoneyTransfers: ActiveMoneyTransfers</text><ellipse cx="478.5" cy="163.8359" fill="#84BE84" rx="3" ry="3" style="stroke:#038048;stroke-width:1.0;"/><text fill="#000000" font-family="sans-serif" font-size="14" lengthAdjust="spacing" text-decoration="underline" textLength="552" x="487.5" y="167.1826">initializeAccount(accountId: AccountId, initialBalance: Balance): BankAccount</text><line style="stroke:#181818;stroke-width:1.0;stroke-dasharray:1.0,2.0;" x1="468.5" x2="800" y1="146.0391" y2="146.0391"/><text fill="#000000" font-family="sans-serif" font-size="14" lengthAdjust="spacing" textLength="50" x="800" y="150.3857">factory</text><line style="stroke:#181818;stroke-width:1.0;stroke-dasharray:1.0,2.0;" x1="850" x2="1181.5" y1="146.0391" y2="146.0391"/><ellipse cx="478.5" cy="200.4297" fill="#84BE84" rx="3" ry="3" style="stroke:#038048;stroke-width:1.0;"/><text fill="#000000" font-family="sans-serif" font-size="14" lengthAdjust="spacing" textLength="397" x="487.5" y="203.7764">depositMoney(amount: Amount): MoneyDepositedEvent</text><ellipse cx="478.5" cy="216.7266" fill="#84BE84" rx="3" ry="3" style="stroke:#038048;stroke-width:1.0;"/><text fill="#000000" font-family="sans-serif" font-size="14" lengthAdjust="spacing" textLength="413" x="487.5" y="220.0732">withdrawMoney(amount: Amount): MoneyWithdrawnEvent</text><ellipse cx="478.5" cy="233.0234" fill="#84BE84" rx="3" ry="3" style="stroke:#038048;stroke-width:1.0;"/><text fill="#000000" font-family="sans-serif" font-size="14" lengthAdjust="spacing" textLength="674" x="487.5" y="236.3701">requestMoneyTransfer(moneyTransferId: MoneyTransferId, ...): MoneyTransferRequestedEvent</text><ellipse cx="478.5" cy="249.3203" fill="#84BE84" rx="3" ry="3" style="stroke:#038048;stroke-width:1.0;"/><text fill="#000000" font-family="sans-serif" font-size="14" lengthAdjust="spacing" textLength="663" x="487.5" y="252.667">receiveMoneyTransfer(moneyTransferId: MoneyTransferId, ...): MoneyTransferReceivedEvent</text><ellipse cx="478.5" cy="265.6172" fill="#84BE84" rx="3" ry="3" style="stroke:#038048;stroke-width:1.0;"/><text fill="#000000" font-family="sans-serif" font-size="14" lengthAdjust="spacing" textLength="689" x="487.5" y="268.9639">completeMoneyTransfer(moneyTransferId: MoneyTransferId, ...): MoneyTransferCompletedEvent</text><ellipse cx="478.5" cy="281.9141" fill="#84BE84" rx="3" ry="3" style="stroke:#038048;stroke-width:1.0;"/><text fill="#000000" font-family="sans-serif" font-size="14" lengthAdjust="spacing" textLength="662" x="487.5" y="285.2607">cancelMoneyTransfer(moneyTransferId: MoneyTransferId, ...): MoneyTransferCancelledEvent</text><line style="stroke:#181818;stroke-width:1.0;stroke-dasharray:1.0,2.0;" x1="468.5" x2="757" y1="182.6328" y2="182.6328"/><text fill="#000000" font-family="sans-serif" font-size="14" lengthAdjust="spacing" textLength="136" x="757" y="186.9795">validation methods</text><line style="stroke:#181818;stroke-width:1.0;stroke-dasharray:1.0,2.0;" x1="893" x2="1181.5" y1="182.6328" y2="182.6328"/><ellipse cx="478.5" cy="318.5078" fill="#84BE84" rx="3" ry="3" style="stroke:#038048;stroke-width:1.0;"/><text fill="#000000" font-family="sans-serif" font-size="14" lengthAdjust="spacing" textLength="249" x="487.5" y="321.8545">increaseBalance(amount: Amount)</text><ellipse cx="478.5" cy="334.8047" fill="#84BE84" rx="3" ry="3" style="stroke:#038048;stroke-width:1.0;"/><text fill="#000000" font-family="sans-serif" font-size="14" lengthAdjust="spacing" textLength="254" x="487.5" y="338.1514">decreaseBalance(amount: Amount)</text><ellipse cx="478.5" cy="351.1016" fill="#84BE84" rx="3" ry="3" style="stroke:#038048;stroke-width:1.0;"/><text fill="#000000" font-family="sans-serif" font-size="14" lengthAdjust="spacing" textLength="555" x="487.5" y="354.4482">initializeMoneyTransfer(moneyTransferId: MoneyTransferId, amount: Amount)</text><ellipse cx="478.5" cy="367.3984" fill="#84BE84" rx="3" ry="3" style="stroke:#038048;stroke-width:1.0;"/><text fill="#000000" font-family="sans-serif" font-size="14" lengthAdjust="spacing" textLength="544" x="487.5" y="370.7451">acknowledgeMoneyTransferCompletion(moneyTransferId: MoneyTransferId)</text><ellipse cx="478.5" cy="383.6953" fill="#84BE84" rx="3" ry="3" style="stroke:#038048;stroke-width:1.0;"/><text fill="#000000" font-family="sans-serif" font-size="14" lengthAdjust="spacing" textLength="551" x="487.5" y="387.042">acknowledgeMoneyTransferCancellation(moneyTransferId: MoneyTransferId)</text><line style="stroke:#181818;stroke-width:1.0;stroke-dasharray:1.0,2.0;" x1="468.5" x2="750" y1="300.7109" y2="300.7109"/><text fill="#000000" font-family="sans-serif" font-size="14" lengthAdjust="spacing" textLength="150" x="750" y="305.0576">. mutation methods ..</text><line style="stroke:#181818;stroke-width:1.0;stroke-dasharray:1.0,2.0;" x1="900" x2="1181.5" y1="300.7109" y2="300.7109"/></g><!--class BankAccountBalance--><g id="elem_BankAccountBalance"><rect codeLine="28" fill="#F1F1F1" height="162.0781" id="BankAccountBalance" rx="2.5" ry="2.5" style="stroke:#181818;stroke-width:0.5;" width="383" x="49.5" y="140.5"/><ellipse cx="160.75" cy="156.5" fill="#DA70D6" rx="11" ry="11" style="stroke:#181818;stroke-width:1.0;"/><path d="M160.8594,160.9531 L163.0469,150.6094 L165.5156,150.6094 L162.5625,163 L159.1719,163 L156.2188,150.6094 L158.6875,150.6094 L160.8594,160.9531 Z " fill="#000000"/><text fill="#000000" font-family="sans-serif" font-size="14" lengthAdjust="spacing" textLength="152" x="181.25" y="161.3467">BankAccountBalance</text><line style="stroke:#181818;stroke-width:0.5;" x1="50.5" x2="431.5" y1="172.5" y2="172.5"/><rect fill="none" height="6" style="stroke:#C82930;stroke-width:1.0;" width="6" x="57.5" y="183.1484"/><text fill="#000000" font-family="sans-serif" font-size="14" lengthAdjust="spacing" textLength="177" x="69.5" y="189.4951">currentBalance: Balance</text><rect fill="none" height="6" style="stroke:#C82930;stroke-width:1.0;" width="6" x="57.5" y="199.4453"/><text fill="#000000" font-family="sans-serif" font-size="14" lengthAdjust="spacing" textLength="197" x="69.5" y="205.792">maximumBalance: Balance</text><rect fill="none" height="6" style="stroke:#C82930;stroke-width:1.0;" width="6" x="57.5" y="215.7422"/><text fill="#000000" font-family="sans-serif" font-size="14" lengthAdjust="spacing" textLength="193" x="69.5" y="222.0889">minimumBalance: Balance</text><line style="stroke:#181818;stroke-width:0.5;" x1="50.5" x2="431.5" y1="229.3906" y2="229.3906"/><ellipse cx="60.5" cy="243.0391" fill="#84BE84" rx="3" ry="3" style="stroke:#038048;stroke-width:1.0;"/><text fill="#000000" font-family="sans-serif" font-size="14" lengthAdjust="spacing" textLength="285" x="69.5" y="246.3857">canIncrease(amount: Amount): Boolean</text><ellipse cx="60.5" cy="259.3359" fill="#84BE84" rx="3" ry="3" style="stroke:#038048;stroke-width:1.0;"/><text fill="#000000" font-family="sans-serif" font-size="14" lengthAdjust="spacing" textLength="292" x="69.5" y="262.6826">canDecrease(amount: Amount): Boolean</text><ellipse cx="60.5" cy="275.6328" fill="#84BE84" rx="3" ry="3" style="stroke:#038048;stroke-width:1.0;"/><text fill="#000000" font-family="sans-serif" font-size="14" lengthAdjust="spacing" textLength="352" x="69.5" y="278.9795">increase(amount: Amount): BankAccountBalance</text><ellipse cx="60.5" cy="291.9297" fill="#84BE84" rx="3" ry="3" style="stroke:#038048;stroke-width:1.0;"/><text fill="#000000" font-family="sans-serif" font-size="14" lengthAdjust="spacing" textLength="357" x="69.5" y="295.2764">decrease(amount: Amount): BankAccountBalance</text></g><!--class ActiveMoneyTransfers--><g id="elem_ActiveMoneyTransfers"><rect codeLine="38" fill="#F1F1F1" height="162.0781" id="ActiveMoneyTransfers" rx="2.5" ry="2.5" style="stroke:#181818;stroke-width:0.5;" width="514" x="1218" y="140.5"/><ellipse cx="1391.75" cy="156.5" fill="#DA70D6" rx="11" ry="11" style="stroke:#181818;stroke-width:1.0;"/><path d="M1391.8594,160.9531 L1394.0469,150.6094 L1396.5156,150.6094 L1393.5625,163 L1390.1719,163 L1387.2188,150.6094 L1389.6875,150.6094 L1391.8594,160.9531 Z " fill="#000000"/><text fill="#000000" font-family="sans-serif" font-size="14" lengthAdjust="spacing" textLength="158" x="1412.25" y="161.3467">ActiveMoneyTransfers</text><line style="stroke:#181818;stroke-width:0.5;" x1="1219" x2="1731" y1="172.5" y2="172.5"/><rect fill="none" height="6" style="stroke:#C82930;stroke-width:1.0;" width="6" x="1226" y="183.1484"/><text fill="#000000" font-family="sans-serif" font-size="14" lengthAdjust="spacing" textLength="404" x="1238" y="189.4951">activeMoneyTransfers: Map&lt;MoneyTransferId, Amount&gt;</text><line style="stroke:#181818;stroke-width:0.5;" x1="1219" x2="1731" y1="196.7969" y2="196.7969"/><ellipse cx="1229" cy="210.4453" fill="#84BE84" rx="3" ry="3" style="stroke:#038048;stroke-width:1.0;"/><text fill="#000000" font-family="sans-serif" font-size="14" lengthAdjust="spacing" textLength="288" x="1238" y="213.792">getReservedAmount(): ReservedAmount</text><ellipse cx="1229" cy="226.7422" fill="#84BE84" rx="3" ry="3" style="stroke:#038048;stroke-width:1.0;"/><text fill="#000000" font-family="sans-serif" font-size="14" lengthAdjust="spacing" textLength="488" x="1238" y="230.0889">getAmountForTransfer(moneyTransferId: MoneyTransferId): Amount</text><ellipse cx="1229" cy="243.0391" fill="#84BE84" rx="3" ry="3" style="stroke:#038048;stroke-width:1.0;"/><text fill="#000000" font-family="sans-serif" font-size="14" lengthAdjust="spacing" textLength="461" x="1238" y="246.3857">hasMoneyTransfer(moneyTransferId: MoneyTransferId): Boolean</text><ellipse cx="1229" cy="259.3359" fill="#84BE84" rx="3" ry="3" style="stroke:#038048;stroke-width:1.0;"/><text fill="#000000" font-family="sans-serif" font-size="14" lengthAdjust="spacing" textLength="471" x="1238" y="262.6826">initTransfer(moneyTransferId: MoneyTransferId, amount: Amount)</text><ellipse cx="1229" cy="275.6328" fill="#84BE84" rx="3" ry="3" style="stroke:#038048;stroke-width:1.0;"/><text fill="#000000" font-family="sans-serif" font-size="14" lengthAdjust="spacing" textLength="388" x="1238" y="278.9795">completeTransfer(moneyTransferId: MoneyTransferId)</text><ellipse cx="1229" cy="291.9297" fill="#84BE84" rx="3" ry="3" style="stroke:#038048;stroke-width:1.0;"/><text fill="#000000" font-family="sans-serif" font-size="14" lengthAdjust="spacing" textLength="368" x="1238" y="295.2764">cancelTransfer(moneyTransferId: MoneyTransferId)</text></g><!--class BankAccountCurrentBalance--><g id="elem_BankAccountCurrentBalance"><rect codeLine="50" fill="#F1F1F1" height="72.5938" id="BankAccountCurrentBalance" rx="2.5" ry="2.5" style="stroke:#181818;stroke-width:0.5;" width="238" x="2180" y="185"/><ellipse cx="2195" cy="201" fill="#ADD1B2" rx="11" ry="11" style="stroke:#181818;stroke-width:1.0;"/><path d="M2199.1094,207 L2191.3906,207 L2191.3906,194.6094 L2199.1094,194.6094 L2199.1094,196.7656 L2193.8438,196.7656 L2193.8438,199.4375 L2198.6094,199.4375 L2198.6094,201.5938 L2193.8438,201.5938 L2193.8438,204.8438 L2199.1094,204.8438 L2199.1094,207 Z " fill="#000000"/><text fill="#000000" font-family="sans-serif" font-size="14" lengthAdjust="spacing" textLength="206" x="2209" y="205.8467">BankAccountCurrentBalance</text><line style="stroke:#181818;stroke-width:0.5;" x1="2181" x2="2417" y1="217" y2="217"/><rect fill="none" height="6" style="stroke:#C82930;stroke-width:1.0;" width="6" x="2188" y="227.6484"/><text fill="#000000" font-family="sans-serif" font-size="14" lengthAdjust="spacing" textLength="154" x="2200" y="233.9951">accountId: AccountId,</text><rect fill="none" height="6" style="stroke:#C82930;stroke-width:1.0;" width="6" x="2188" y="243.9453"/><text fill="#000000" font-family="sans-serif" font-size="14" lengthAdjust="spacing" textLength="124" x="2200" y="250.292">balance: Balance</text></g><!--class BankAccountMoneyTransfer--><g id="elem_BankAccountMoneyTransfer"><rect codeLine="55" fill="#F1F1F1" height="137.7813" id="BankAccountMoneyTransfer" rx="2.5" ry="2.5" style="stroke:#181818;stroke-width:0.5;" width="306" x="1839" y="152.5"/><ellipse cx="1887.25" cy="168.5" fill="#ADD1B2" rx="11" ry="11" style="stroke:#181818;stroke-width:1.0;"/><path d="M1891.3594,174.5 L1883.6406,174.5 L1883.6406,162.1094 L1891.3594,162.1094 L1891.3594,164.2656 L1886.0938,164.2656 L1886.0938,166.9375 L1890.8594,166.9375 L1890.8594,169.0938 L1886.0938,169.0938 L1886.0938,172.3438 L1891.3594,172.3438 L1891.3594,174.5 Z " fill="#000000"/><text fill="#000000" font-family="sans-serif" font-size="14" lengthAdjust="spacing" textLength="201" x="1907.75" y="173.3467">BankAccountMoneyTransfer</text><line style="stroke:#181818;stroke-width:0.5;" x1="1840" x2="2144" y1="184.5" y2="184.5"/><rect fill="none" height="6" style="stroke:#C82930;stroke-width:1.0;" width="6" x="1847" y="195.1484"/><text fill="#000000" font-family="sans-serif" font-size="14" lengthAdjust="spacing" textLength="251" x="1859" y="201.4951">moneyTransferId: MoneyTransferId</text><rect fill="none" height="6" style="stroke:#C82930;stroke-width:1.0;" width="6" x="1847" y="211.4453"/><text fill="#000000" font-family="sans-serif" font-size="14" lengthAdjust="spacing" textLength="199" x="1859" y="217.792">sourceAccountId: AccountId</text><rect fill="none" height="6" style="stroke:#C82930;stroke-width:1.0;" width="6" x="1847" y="227.7422"/><text fill="#000000" font-family="sans-serif" font-size="14" lengthAdjust="spacing" textLength="194" x="1859" y="234.0889">targetAccountId: AccountId</text><rect fill="none" height="6" style="stroke:#C82930;stroke-width:1.0;" width="6" x="1847" y="244.0391"/><text fill="#000000" font-family="sans-serif" font-size="14" lengthAdjust="spacing" textLength="120" x="1859" y="250.3857">amount: Amount</text><rect fill="none" height="6" style="stroke:#C82930;stroke-width:1.0;" width="6" x="1847" y="260.3359"/><text fill="#000000" font-family="sans-serif" font-size="14" lengthAdjust="spacing" textLength="176" x="1859" y="266.6826">success: Boolean? = null</text><rect fill="none" height="6" style="stroke:#C82930;stroke-width:1.0;" width="6" x="1847" y="276.6328"/><text fill="#000000" font-family="sans-serif" font-size="14" lengthAdjust="spacing" textLength="280" x="1859" y="282.9795">errorMessage: RejectionReason? = null</text></g><!--class AccountId--><g id="elem_AccountId"><rect codeLine="67" fill="#F1F1F1" height="32" id="AccountId" rx="2.5" ry="2.5" style="stroke:#181818;stroke-width:0.5;" width="103" x="1010.5" y="501"/><ellipse cx="1025.5" cy="517" fill="#DA70D6" rx="11" ry="11" style="stroke:#181818;stroke-width:1.0;"/><path d="M1025.6094,521.4531 L1027.7969,511.1094 L1030.2656,511.1094 L1027.3125,523.5 L1023.9219,523.5 L1020.9688,511.1094 L1023.4375,511.1094 L1025.6094,521.4531 Z " fill="#000000"/><text fill="#000000" font-family="sans-serif" font-size="14" lengthAdjust="spacing" textLength="71" x="1039.5" y="521.8467">AccountId</text></g><!--class Amount--><g id="elem_Amount"><rect codeLine="68" fill="#F1F1F1" height="32" id="Amount" rx="2.5" ry="2.5" style="stroke:#181818;stroke-width:0.5;" width="88" x="1149" y="501"/><ellipse cx="1164" cy="517" fill="#DA70D6" rx="11" ry="11" style="stroke:#181818;stroke-width:1.0;"/><path d="M1164.1094,521.4531 L1166.2969,511.1094 L1168.7656,511.1094 L1165.8125,523.5 L1162.4219,523.5 L1159.4688,511.1094 L1161.9375,511.1094 L1164.1094,521.4531 Z " fill="#000000"/><text fill="#000000" font-family="sans-serif" font-size="14" lengthAdjust="spacing" textLength="56" x="1178" y="521.8467">Amount</text></g><!--class Balance--><g id="elem_Balance"><rect codeLine="69" fill="#F1F1F1" height="32" id="Balance" rx="2.5" ry="2.5" style="stroke:#181818;stroke-width:0.5;" width="90" x="1272" y="501"/><ellipse cx="1287" cy="517" fill="#DA70D6" rx="11" ry="11" style="stroke:#181818;stroke-width:1.0;"/><path d="M1287.1094,521.4531 L1289.2969,511.1094 L1291.7656,511.1094 L1288.8125,523.5 L1285.4219,523.5 L1282.4688,511.1094 L1284.9375,511.1094 L1287.1094,521.4531 Z " fill="#000000"/><text fill="#000000" font-family="sans-serif" font-size="14" lengthAdjust="spacing" textLength="58" x="1301" y="521.8467">Balance</text></g><!--class ReservedAmount--><g id="elem_ReservedAmount"><rect codeLine="70" fill="#F1F1F1" height="32" id="ReservedAmount" rx="2.5" ry="2.5" style="stroke:#181818;stroke-width:0.5;" width="155" x="1397.5" y="501"/><ellipse cx="1412.5" cy="517" fill="#DA70D6" rx="11" ry="11" style="stroke:#181818;stroke-width:1.0;"/><path d="M1412.6094,521.4531 L1414.7969,511.1094 L1417.2656,511.1094 L1414.3125,523.5 L1410.9219,523.5 L1407.9688,511.1094 L1410.4375,511.1094 L1412.6094,521.4531 Z " fill="#000000"/><text fill="#000000" font-family="sans-serif" font-size="14" lengthAdjust="spacing" textLength="123" x="1426.5" y="521.8467">ReservedAmount</text></g><!--class CurrentBalance--><g id="elem_CurrentBalance"><rect codeLine="71" fill="#F1F1F1" height="72.5938" id="CurrentBalance" rx="2.5" ry="2.5" style="stroke:#181818;stroke-width:0.5;" width="176" x="974" y="617"/><ellipse cx="1003.4" cy="633" fill="#DA70D6" rx="11" ry="11" style="stroke:#181818;stroke-width:1.0;"/><path d="M1003.5094,637.4531 L1005.6969,627.1094 L1008.1656,627.1094 L1005.2125,639.5 L1001.8219,639.5 L998.8688,627.1094 L1001.3375,627.1094 L1003.5094,637.4531 Z " fill="#000000"/><text fill="#000000" font-family="sans-serif" font-size="14" lengthAdjust="spacing" textLength="112" x="1020.6" y="637.8467">CurrentBalance</text><line style="stroke:#181818;stroke-width:0.5;" x1="975" x2="1149" y1="649" y2="649"/><rect fill="none" height="6" style="stroke:#C82930;stroke-width:1.0;" width="6" x="982" y="659.6484"/><text fill="#000000" font-family="sans-serif" font-size="14" lengthAdjust="spacing" textLength="150" x="994" y="665.9951">accountId: AccountId</text><rect fill="none" height="6" style="stroke:#C82930;stroke-width:1.0;" width="6" x="982" y="675.9453"/><text fill="#000000" font-family="sans-serif" font-size="14" lengthAdjust="spacing" textLength="124" x="994" y="682.292">balance: Balance</text></g><!--class MoneyTransferId--><g id="elem_MoneyTransferId"><rect codeLine="75" fill="#F1F1F1" height="32" id="MoneyTransferId" rx="2.5" ry="2.5" style="stroke:#181818;stroke-width:0.5;" width="152" x="1185" y="637.5"/><ellipse cx="1200" cy="653.5" fill="#DA70D6" rx="11" ry="11" style="stroke:#181818;stroke-width:1.0;"/><path d="M1200.1094,657.9531 L1202.2969,647.6094 L1204.7656,647.6094 L1201.8125,660 L1198.4219,660 L1195.4688,647.6094 L1197.9375,647.6094 L1200.1094,657.9531 Z " fill="#000000"/><text fill="#000000" font-family="sans-serif" font-size="14" lengthAdjust="spacing" textLength="120" x="1214" y="658.3467">MoneyTransferId</text></g><!--class MoneyTransferStatus--><g id="elem_MoneyTransferStatus"><rect codeLine="76" fill="#F1F1F1" height="32" id="MoneyTransferStatus" rx="2.5" ry="2.5" style="stroke:#181818;stroke-width:0.5;" width="183" x="1372.5" y="637.5"/><ellipse cx="1387.5" cy="653.5" fill="#DA70D6" rx="11" ry="11" style="stroke:#181818;stroke-width:1.0;"/><path d="M1387.6094,657.9531 L1389.7969,647.6094 L1392.2656,647.6094 L1389.3125,660 L1385.9219,660 L1382.9688,647.6094 L1385.4375,647.6094 L1387.6094,657.9531 Z " fill="#000000"/><text fill="#000000" font-family="sans-serif" font-size="14" lengthAdjust="spacing" textLength="151" x="1401.5" y="658.3467">MoneyTransferStatus</text></g><!--class MoneyTransferSummaries--><g id="elem_MoneyTransferSummaries"><rect codeLine="77" fill="#F1F1F1" height="32" id="MoneyTransferSummaries" rx="2.5" ry="2.5" style="stroke:#181818;stroke-width:0.5;" width="220" x="688" y="501"/><ellipse cx="703" cy="517" fill="#DA70D6" rx="11" ry="11" style="stroke:#181818;stroke-width:1.0;"/><path d="M703.1094,521.4531 L705.2969,511.1094 L707.7656,511.1094 L704.8125,523.5 L701.4219,523.5 L698.4688,511.1094 L700.9375,511.1094 L703.1094,521.4531 Z " fill="#000000"/><text fill="#000000" font-family="sans-serif" font-size="14" lengthAdjust="spacing" textLength="188" x="717" y="521.8467">MoneyTransferSummaries</text></g><!--class MoneyTransferSummary--><g id="elem_MoneyTransferSummary"><rect codeLine="79" fill="#F1F1F1" height="121.4844" id="MoneyTransferSummary" rx="2.5" ry="2.5" style="stroke:#181818;stroke-width:0.5;" width="281" x="657.5" y="593"/><ellipse cx="705.75" cy="609" fill="#ADD1B2" rx="11" ry="11" style="stroke:#181818;stroke-width:1.0;"/><path d="M709.8594,615 L702.1406,615 L702.1406,602.6094 L709.8594,602.6094 L709.8594,604.7656 L704.5938,604.7656 L704.5938,607.4375 L709.3594,607.4375 L709.3594,609.5938 L704.5938,609.5938 L704.5938,612.8438 L709.8594,612.8438 L709.8594,615 Z " fill="#000000"/><text fill="#000000" font-family="sans-serif" font-size="14" lengthAdjust="spacing" textLength="176" x="726.25" y="613.8467">MoneyTransferSummary</text><line style="stroke:#181818;stroke-width:0.5;" x1="658.5" x2="937.5" y1="625" y2="625"/><rect fill="none" height="6" style="stroke:#C82930;stroke-width:1.0;" width="6" x="665.5" y="635.6484"/><text fill="#000000" font-family="sans-serif" font-size="14" lengthAdjust="spacing" textLength="255" x="677.5" y="641.9951">moneyTransferId: MoneyTransferId,</text><rect fill="none" height="6" style="stroke:#C82930;stroke-width:1.0;" width="6" x="665.5" y="651.9453"/><text fill="#000000" font-family="sans-serif" font-size="14" lengthAdjust="spacing" textLength="203" x="677.5" y="658.292">sourceAccountId: AccountId,</text><rect fill="none" height="6" style="stroke:#C82930;stroke-width:1.0;" width="6" x="665.5" y="668.2422"/><text fill="#000000" font-family="sans-serif" font-size="14" lengthAdjust="spacing" textLength="198" x="677.5" y="674.5889">targetAccountId: AccountId,</text><rect fill="none" height="6" style="stroke:#C82930;stroke-width:1.0;" width="6" x="665.5" y="684.5391"/><text fill="#000000" font-family="sans-serif" font-size="14" lengthAdjust="spacing" textLength="124" x="677.5" y="690.8857">amount: Amount,</text><rect fill="none" height="6" style="stroke:#C82930;stroke-width:1.0;" width="6" x="665.5" y="700.8359"/><text fill="#000000" font-family="sans-serif" font-size="14" lengthAdjust="spacing" textLength="202" x="677.5" y="707.1826">status: MoneyTransferStatus</text></g><!--class MoneyTransferNotFound--><g id="elem_MoneyTransferNotFound"><rect codeLine="87" fill="#F1F1F1" height="32" id="MoneyTransferNotFound" rx="2.5" ry="2.5" style="stroke:#181818;stroke-width:0.5;" width="207" x="1590.5" y="637.5"/><ellipse cx="1605.5" cy="653.5" fill="#FFA500" rx="11" ry="11" style="stroke:#181818;stroke-width:1.0;"/><path d="M1609.6094,659.5 L1601.8906,659.5 L1601.8906,647.1094 L1609.6094,647.1094 L1609.6094,649.2656 L1604.3438,649.2656 L1604.3438,651.9375 L1609.1094,651.9375 L1609.1094,654.0938 L1604.3438,654.0938 L1604.3438,657.3438 L1609.6094,657.3438 L1609.6094,659.5 Z " fill="#000000"/><text fill="#000000" font-family="sans-serif" font-size="14" lengthAdjust="spacing" textLength="175" x="1619.5" y="658.3467">MoneyTransferNotFound</text></g><!--class InsufficientBalance--><g id="elem_InsufficientBalance"><rect codeLine="88" fill="#F1F1F1" height="32" id="InsufficientBalance" rx="2.5" ry="2.5" style="stroke:#181818;stroke-width:0.5;" width="168" x="978" y="774"/><ellipse cx="993" cy="790" fill="#FFA500" rx="11" ry="11" style="stroke:#181818;stroke-width:1.0;"/><path d="M997.1094,796 L989.3906,796 L989.3906,783.6094 L997.1094,783.6094 L997.1094,785.7656 L991.8438,785.7656 L991.8438,788.4375 L996.6094,788.4375 L996.6094,790.5938 L991.8438,790.5938 L991.8438,793.8438 L997.1094,793.8438 L997.1094,796 Z " fill="#000000"/><text fill="#000000" font-family="sans-serif" font-size="14" lengthAdjust="spacing" textLength="136" x="1007" y="794.8467">InsufficientBalance</text></g><!--class MaximumBalanceExceeded--><g id="elem_MaximumBalanceExceeded"><rect codeLine="89" fill="#F1F1F1" height="32" id="MaximumBalanceExceeded" rx="2.5" ry="2.5" style="stroke:#181818;stroke-width:0.5;" width="230" x="1181" y="774"/><ellipse cx="1196" cy="790" fill="#FFA500" rx="11" ry="11" style="stroke:#181818;stroke-width:1.0;"/><path d="M1200.1094,796 L1192.3906,796 L1192.3906,783.6094 L1200.1094,783.6094 L1200.1094,785.7656 L1194.8438,785.7656 L1194.8438,788.4375 L1199.6094,788.4375 L1199.6094,790.5938 L1194.8438,790.5938 L1194.8438,793.8438 L1200.1094,793.8438 L1200.1094,796 Z " fill="#000000"/><text fill="#000000" font-family="sans-serif" font-size="14" lengthAdjust="spacing" textLength="198" x="1210" y="794.8467">MaximumBalanceExceeded</text></g><!--reverse link MoneyTransferSummaries to MoneyTransferSummary--><g id="link_MoneyTransferSummaries_MoneyTransferSummary"><path codeLine="92" d="M798,546.19 C798,546.19 798,592.79 798,592.79 " fill="none" id="MoneyTransferSummaries-backto-MoneyTransferSummary" style="stroke:#181818;stroke-width:1.0;"/><polygon fill="#181818" points="798,533.19,794,539.19,798,545.19,802,539.19,798,533.19" style="stroke:#181818;stroke-width:1.0;"/></g><!--link BankAccount to ActiveMoneyTransfers--><g id="link_BankAccount_ActiveMoneyTransfers"><path codeLine="93" d="M1182.8,222 C1182.8,222 1212.92,222 1212.92,222 " fill="none" id="BankAccount-to-ActiveMoneyTransfers" style="stroke:#181818;stroke-width:1.0;"/><polygon fill="#181818" points="1217.92,222,1208.92,218,1212.92,222,1208.92,226,1217.92,222" style="stroke:#181818;stroke-width:1.0;"/></g><!--reverse link BankAccountBalance to BankAccount--><g id="link_BankAccountBalance_BankAccount"><path codeLine="94" d="M437.63,222 C437.63,222 467.41,222 467.41,222 " fill="none" id="BankAccountBalance-backto-BankAccount" style="stroke:#181818;stroke-width:1.0;"/><polygon fill="#181818" points="432.63,222,441.63,226,437.63,222,441.63,218,432.63,222" style="stroke:#181818;stroke-width:1.0;"/></g><!--link command to type--><g id="link_command_type"><path d="M14,419.2057 C14,419.7397 14,420.2727 14,420.8046 C14,422.9324 14,425.0439 14,427.1369 C14,443.8814 14,459.4477 14,472.7608 C14,499.3869 14,517 14,517 C14,517 163.9525,517 316.2475,517 C392.395,517 469.1281,517 527.9956,517 C557.4294,517 582.3967,517 600.5913,517 C609.6885,517 617.0926,517 622.5151,517 C623.193,517 623.8398,517 624.4552,517 " fill="none" id="command-to-type" style="stroke:#181818;stroke-width:1.0;"/><polygon fill="#181818" points="624.4552,517,615.4552,513,619.4552,517,615.4552,521,624.4552,517" style="stroke:#181818;stroke-width:1.0;"/></g><!--link query to type--><g id="link_query_type"><path d="M1804,315.7136 C1804,316.1368 1804,316.5602 1804,316.9841 C1804,317.8317 1804,318.6808 1804,319.531 C1804,326.3325 1804,333.2086 1804,340.0588 C1804,394.86 1804,448 1804,448 C1804,448 633,448 633,448 C633,448 633,451.9175 633,457.8856 " fill="none" id="query-to-type" style="stroke:#181818;stroke-width:1.0;"/><polygon fill="#181818" points="633,457.8856,637,448.8856,633,452.8856,629,448.8856,633,457.8856" style="stroke:#181818;stroke-width:1.0;"/></g><!--SRC=[hLTDSziW4BthLt2qMpi_89Ewaw_EvE0Uqavx9cXjqqZW0ehZUlpVkm991WafSYQ-M8AtRvVbxOACt18ZoPCqHkOavGgOuL8a-fcBBLKq9naNOFPR85APZKoIBMNFT0s4oJod8YM7927u0s6usPCRAfwl6PE5C3X3gj-SK3Vsa5wIw_fnviq_qOmA1akPGdRfizouYLd0PVWBGWNiVoegz0gKBccxezReueAiq4IgFJusD9_9GHjgE3iIBhZXDEF_eF8vYKPRuwg8oYZjmpI8jtRvWeGfBND9Si34fJhqdi9MQcvil1EQbwRepFuZeHs-Sn18xr-W8dQsEsusgQAx8UFV5KQqZHNyBK2R856Jt7yhbxqC1sOO_CMqDVpecBhneOYWlHVlTM6PEXvGVDiCp4UukAsekZxApSq-meCbodmFY29vOThw21J21LD0DLGoQ-zpeAMno9FKprrNFoVs0o5tkBmrn1ABAtoJVXIToo8zW_3eMXFBgDQHdaAkhYQ_PbAn3K-dYqNGhrYX53J8fjOzH4vVULxaGmZCzX32IkoXskLk6Tz8cG4L8VmEniDvFtKd5n4rZJOBqXnhmqE9ZZVp9TrUTIJeubXueQx1F886XHt2JKumod0aHBknRrADLlwqNhz7jA7wlFBfsHvkFgG0wsOuFfnEbplJz9WSJnS1F0JmQ3tqt09kWq9gjdxuHj3S1yAYEVPTDO8WFHzlhQO1Qbae1jUHa1g8eQeKq10atA8JUS4OQDreu2lvGaIHPGq0b99gYH1CPwdVF-uIzeXLA4CqPi3BlBsM7OBYgq9gLPmFiR7rpyTxemS8owiVrzhumHRGczC1APmyjJQrFwG0-0DFtqAF1HTusLKSEdXVa16B_HbYd8rGuso476SzUlJuxT8lO_deDlG0z5rYyoo4pV4zfe6ADOHfUn2wMAquu-7Uny7Bu0ozVsK0ANJ8CPoUpVWqJ-VHj2V-TyXSBU9V1m4eMyJEj_eh1nqjRBqbhjsTtfC4fG1uYSkVIawzaRlWAsXWmbxxaivCdRR0CdgkrWW7YUglXjWWUn1-7Aso3SmxSpqB2DjnG360ScHjhg5uXc2ExJy0]--></g></svg>