<?xml version="1.0" encoding="UTF-8" standalone="no"?><svg xmlns="http://www.w3.org/2000/svg" xmlns:xlink="http://www.w3.org/1999/xlink" contentStyleType="text/css" height="682px" preserveAspectRatio="none" style="width:3559px;height:682px;background:#FFFFFF;" version="1.1" viewBox="0 0 3559 682" width="3559px" zoomAndPan="magnify"><defs/><g><!--cluster command--><g id="cluster_command"><path d="M8.5,6 L86.5,6 A3.75,3.75 0 0 1 89,8.5 L96,28.2969 L1717.5,28.2969 A2.5,2.5 0 0 1 1720,30.7969 L1720,399.5 A2.5,2.5 0 0 1 1717.5,402 L8.5,402 A2.5,2.5 0 0 1 6,399.5 L6,8.5 A2.5,2.5 0 0 1 8.5,6 " fill="none" style="stroke:#000000;stroke-width:1.5;"/><line style="stroke:#000000;stroke-width:1.5;" x1="6" x2="96" y1="28.2969" y2="28.2969"/><text fill="#000000" font-family="sans-serif" font-size="14" font-weight="bold" lengthAdjust="spacing" textLength="77" x="10" y="20.9951">command</text></g><!--cluster query--><g id="cluster_query"><path d="M2943.5,109.5 L2990.5,109.5 A3.75,3.75 0 0 1 2993,112 L3000,131.7969 L3549.5,131.7969 A2.5,2.5 0 0 1 3552,134.2969 L3552,296 A2.5,2.5 0 0 1 3549.5,298.5 L2943.5,298.5 A2.5,2.5 0 0 1 2941,296 L2941,112 A2.5,2.5 0 0 1 2943.5,109.5 " fill="none" style="stroke:#000000;stroke-width:1.5;"/><line style="stroke:#000000;stroke-width:1.5;" x1="2941" x2="3000" y1="131.7969" y2="131.7969"/><text fill="#000000" font-family="sans-serif" font-size="14" font-weight="bold" lengthAdjust="spacing" textLength="46" x="2945" y="124.4951">query</text></g><!--cluster type--><g id="cluster_type"><path d="M1746.5,162.5 L1783.5,162.5 A3.75,3.75 0 0 1 1786,165 L1793,184.7969 L2914.5,184.7969 A2.5,2.5 0 0 1 2917,187.2969 L2917,672.5 A2.5,2.5 0 0 1 2914.5,675 L1746.5,675 A2.5,2.5 0 0 1 1744,672.5 L1744,165 A2.5,2.5 0 0 1 1746.5,162.5 " fill="none" style="stroke:#000000;stroke-width:1.5;"/><line style="stroke:#000000;stroke-width:1.5;" x1="1744" x2="1793" y1="184.7969" y2="184.7969"/><text fill="#000000" font-family="sans-serif" font-size="14" font-weight="bold" lengthAdjust="spacing" textLength="36" x="1748" y="177.4951">type</text></g><!--class BankAccount--><g id="elem_BankAccount"><rect codeLine="8" fill="#F1F1F1" height="345.3438" id="BankAccount" rx="2.5" ry="2.5" style="stroke:#181818;stroke-width:0.5;" width="715" x="439.5" y="41"/><ellipse cx="745.75" cy="57" fill="#ADD1B2" rx="11" ry="11" style="stroke:#181818;stroke-width:1.0;"/><path d="M749.8594,63 L742.1406,63 L742.1406,50.6094 L749.8594,50.6094 L749.8594,52.7656 L744.5938,52.7656 L744.5938,55.4375 L749.3594,55.4375 L749.3594,57.5938 L744.5938,57.5938 L744.5938,60.8438 L749.8594,60.8438 L749.8594,63 Z " fill="#000000"/><text fill="#000000" font-family="sans-serif" font-size="14" lengthAdjust="spacing" textLength="94" x="766.25" y="61.8467">BankAccount</text><line style="stroke:#181818;stroke-width:0.5;" x1="440.5" x2="1153.5" y1="73" y2="73"/><rect fill="none" height="6" style="stroke:#C82930;stroke-width:1.0;" width="6" x="447.5" y="83.6484"/><text fill="#000000" font-family="sans-serif" font-size="14" lengthAdjust="spacing" textLength="154" x="459.5" y="89.9951">accountId: AccountId,</text><rect fill="none" height="6" style="stroke:#C82930;stroke-width:1.0;" width="6" x="447.5" y="99.9453"/><text fill="#000000" font-family="sans-serif" font-size="14" lengthAdjust="spacing" textLength="265" x="459.5" y="106.292">balanceModel: BankAccountBalance,</text><rect fill="none" height="6" style="stroke:#C82930;stroke-width:1.0;" width="6" x="447.5" y="116.2422"/><text fill="#000000" font-family="sans-serif" font-size="14" lengthAdjust="spacing" textLength="324" x="459.5" y="122.5889">activeMoneyTransfers: ActiveMoneyTransfers</text><ellipse cx="450.5" cy="155.8359" fill="#84BE84" rx="3" ry="3" style="stroke:#038048;stroke-width:1.0;"/><text fill="#000000" font-family="sans-serif" font-size="14" lengthAdjust="spacing" text-decoration="underline" textLength="552" x="459.5" y="159.1826">initializeAccount(accountId: AccountId, initialBalance: Balance): BankAccount</text><line style="stroke:#181818;stroke-width:1.0;stroke-dasharray:1.0,2.0;" x1="440.5" x2="772" y1="138.0391" y2="138.0391"/><text fill="#000000" font-family="sans-serif" font-size="14" lengthAdjust="spacing" textLength="50" x="772" y="142.3857">factory</text><line style="stroke:#181818;stroke-width:1.0;stroke-dasharray:1.0,2.0;" x1="822" x2="1153.5" y1="138.0391" y2="138.0391"/><ellipse cx="450.5" cy="192.4297" fill="#84BE84" rx="3" ry="3" style="stroke:#038048;stroke-width:1.0;"/><text fill="#000000" font-family="sans-serif" font-size="14" lengthAdjust="spacing" textLength="397" x="459.5" y="195.7764">depositMoney(amount: Amount): MoneyDepositedEvent</text><ellipse cx="450.5" cy="208.7266" fill="#84BE84" rx="3" ry="3" style="stroke:#038048;stroke-width:1.0;"/><text fill="#000000" font-family="sans-serif" font-size="14" lengthAdjust="spacing" textLength="413" x="459.5" y="212.0732">withdrawMoney(amount: Amount): MoneyWithdrawnEvent</text><ellipse cx="450.5" cy="225.0234" fill="#84BE84" rx="3" ry="3" style="stroke:#038048;stroke-width:1.0;"/><text fill="#000000" font-family="sans-serif" font-size="14" lengthAdjust="spacing" textLength="674" x="459.5" y="228.3701">requestMoneyTransfer(moneyTransferId: MoneyTransferId, ...): MoneyTransferRequestedEvent</text><ellipse cx="450.5" cy="241.3203" fill="#84BE84" rx="3" ry="3" style="stroke:#038048;stroke-width:1.0;"/><text fill="#000000" font-family="sans-serif" font-size="14" lengthAdjust="spacing" textLength="663" x="459.5" y="244.667">receiveMoneyTransfer(moneyTransferId: MoneyTransferId, ...): MoneyTransferReceivedEvent</text><ellipse cx="450.5" cy="257.6172" fill="#84BE84" rx="3" ry="3" style="stroke:#038048;stroke-width:1.0;"/><text fill="#000000" font-family="sans-serif" font-size="14" lengthAdjust="spacing" textLength="689" x="459.5" y="260.9639">completeMoneyTransfer(moneyTransferId: MoneyTransferId, ...): MoneyTransferCompletedEvent</text><ellipse cx="450.5" cy="273.9141" fill="#84BE84" rx="3" ry="3" style="stroke:#038048;stroke-width:1.0;"/><text fill="#000000" font-family="sans-serif" font-size="14" lengthAdjust="spacing" textLength="662" x="459.5" y="277.2607">cancelMoneyTransfer(moneyTransferId: MoneyTransferId, ...): MoneyTransferCancelledEvent</text><line style="stroke:#181818;stroke-width:1.0;stroke-dasharray:1.0,2.0;" x1="440.5" x2="729" y1="174.6328" y2="174.6328"/><text fill="#000000" font-family="sans-serif" font-size="14" lengthAdjust="spacing" textLength="136" x="729" y="178.9795">validation methods</text><line style="stroke:#181818;stroke-width:1.0;stroke-dasharray:1.0,2.0;" x1="865" x2="1153.5" y1="174.6328" y2="174.6328"/><ellipse cx="450.5" cy="310.5078" fill="#84BE84" rx="3" ry="3" style="stroke:#038048;stroke-width:1.0;"/><text fill="#000000" font-family="sans-serif" font-size="14" lengthAdjust="spacing" textLength="249" x="459.5" y="313.8545">increaseBalance(amount: Amount)</text><ellipse cx="450.5" cy="326.8047" fill="#84BE84" rx="3" ry="3" style="stroke:#038048;stroke-width:1.0;"/><text fill="#000000" font-family="sans-serif" font-size="14" lengthAdjust="spacing" textLength="254" x="459.5" y="330.1514">decreaseBalance(amount: Amount)</text><ellipse cx="450.5" cy="343.1016" fill="#84BE84" rx="3" ry="3" style="stroke:#038048;stroke-width:1.0;"/><text fill="#000000" font-family="sans-serif" font-size="14" lengthAdjust="spacing" textLength="555" x="459.5" y="346.4482">initializeMoneyTransfer(moneyTransferId: MoneyTransferId, amount: Amount)</text><ellipse cx="450.5" cy="359.3984" fill="#84BE84" rx="3" ry="3" style="stroke:#038048;stroke-width:1.0;"/><text fill="#000000" font-family="sans-serif" font-size="14" lengthAdjust="spacing" textLength="544" x="459.5" y="362.7451">acknowledgeMoneyTransferCompletion(moneyTransferId: MoneyTransferId)</text><ellipse cx="450.5" cy="375.6953" fill="#84BE84" rx="3" ry="3" style="stroke:#038048;stroke-width:1.0;"/><text fill="#000000" font-family="sans-serif" font-size="14" lengthAdjust="spacing" textLength="551" x="459.5" y="379.042">acknowledgeMoneyTransferCancellation(moneyTransferId: MoneyTransferId)</text><line style="stroke:#181818;stroke-width:1.0;stroke-dasharray:1.0,2.0;" x1="440.5" x2="722" y1="292.7109" y2="292.7109"/><text fill="#000000" font-family="sans-serif" font-size="14" lengthAdjust="spacing" textLength="150" x="722" y="297.0576">. mutation methods ..</text><line style="stroke:#181818;stroke-width:1.0;stroke-dasharray:1.0,2.0;" x1="872" x2="1153.5" y1="292.7109" y2="292.7109"/></g><!--class BankAccountBalance--><g id="elem_BankAccountBalance"><rect codeLine="29" fill="#F1F1F1" height="162.0781" id="BankAccountBalance" rx="2.5" ry="2.5" style="stroke:#181818;stroke-width:0.5;" width="383" x="21.5" y="132.5"/><ellipse cx="132.75" cy="148.5" fill="#DA70D6" rx="11" ry="11" style="stroke:#181818;stroke-width:1.0;"/><path d="M132.8594,152.9531 L135.0469,142.6094 L137.5156,142.6094 L134.5625,155 L131.1719,155 L128.2188,142.6094 L130.6875,142.6094 L132.8594,152.9531 Z " fill="#000000"/><text fill="#000000" font-family="sans-serif" font-size="14" lengthAdjust="spacing" textLength="152" x="153.25" y="153.3467">BankAccountBalance</text><line style="stroke:#181818;stroke-width:0.5;" x1="22.5" x2="403.5" y1="164.5" y2="164.5"/><rect fill="none" height="6" style="stroke:#C82930;stroke-width:1.0;" width="6" x="29.5" y="175.1484"/><text fill="#000000" font-family="sans-serif" font-size="14" lengthAdjust="spacing" textLength="177" x="41.5" y="181.4951">currentBalance: Balance</text><rect fill="none" height="6" style="stroke:#C82930;stroke-width:1.0;" width="6" x="29.5" y="191.4453"/><text fill="#000000" font-family="sans-serif" font-size="14" lengthAdjust="spacing" textLength="197" x="41.5" y="197.792">maximumBalance: Balance</text><rect fill="none" height="6" style="stroke:#C82930;stroke-width:1.0;" width="6" x="29.5" y="207.7422"/><text fill="#000000" font-family="sans-serif" font-size="14" lengthAdjust="spacing" textLength="193" x="41.5" y="214.0889">minimumBalance: Balance</text><line style="stroke:#181818;stroke-width:0.5;" x1="22.5" x2="403.5" y1="221.3906" y2="221.3906"/><ellipse cx="32.5" cy="235.0391" fill="#84BE84" rx="3" ry="3" style="stroke:#038048;stroke-width:1.0;"/><text fill="#000000" font-family="sans-serif" font-size="14" lengthAdjust="spacing" textLength="285" x="41.5" y="238.3857">canIncrease(amount: Amount): Boolean</text><ellipse cx="32.5" cy="251.3359" fill="#84BE84" rx="3" ry="3" style="stroke:#038048;stroke-width:1.0;"/><text fill="#000000" font-family="sans-serif" font-size="14" lengthAdjust="spacing" textLength="292" x="41.5" y="254.6826">canDecrease(amount: Amount): Boolean</text><ellipse cx="32.5" cy="267.6328" fill="#84BE84" rx="3" ry="3" style="stroke:#038048;stroke-width:1.0;"/><text fill="#000000" font-family="sans-serif" font-size="14" lengthAdjust="spacing" textLength="352" x="41.5" y="270.9795">increase(amount: Amount): BankAccountBalance</text><ellipse cx="32.5" cy="283.9297" fill="#84BE84" rx="3" ry="3" style="stroke:#038048;stroke-width:1.0;"/><text fill="#000000" font-family="sans-serif" font-size="14" lengthAdjust="spacing" textLength="357" x="41.5" y="287.2764">decrease(amount: Amount): BankAccountBalance</text></g><!--class ActiveMoneyTransfers--><g id="elem_ActiveMoneyTransfers"><rect codeLine="39" fill="#F1F1F1" height="162.0781" id="ActiveMoneyTransfers" rx="2.5" ry="2.5" style="stroke:#181818;stroke-width:0.5;" width="514" x="1190" y="132.5"/><ellipse cx="1363.75" cy="148.5" fill="#DA70D6" rx="11" ry="11" style="stroke:#181818;stroke-width:1.0;"/><path d="M1363.8594,152.9531 L1366.0469,142.6094 L1368.5156,142.6094 L1365.5625,155 L1362.1719,155 L1359.2188,142.6094 L1361.6875,142.6094 L1363.8594,152.9531 Z " fill="#000000"/><text fill="#000000" font-family="sans-serif" font-size="14" lengthAdjust="spacing" textLength="158" x="1384.25" y="153.3467">ActiveMoneyTransfers</text><line style="stroke:#181818;stroke-width:0.5;" x1="1191" x2="1703" y1="164.5" y2="164.5"/><rect fill="none" height="6" style="stroke:#C82930;stroke-width:1.0;" width="6" x="1198" y="175.1484"/><text fill="#000000" font-family="sans-serif" font-size="14" lengthAdjust="spacing" textLength="404" x="1210" y="181.4951">activeMoneyTransfers: Map&lt;MoneyTransferId, Amount&gt;</text><line style="stroke:#181818;stroke-width:0.5;" x1="1191" x2="1703" y1="188.7969" y2="188.7969"/><ellipse cx="1201" cy="202.4453" fill="#84BE84" rx="3" ry="3" style="stroke:#038048;stroke-width:1.0;"/><text fill="#000000" font-family="sans-serif" font-size="14" lengthAdjust="spacing" textLength="288" x="1210" y="205.792">getReservedAmount(): ReservedAmount</text><ellipse cx="1201" cy="218.7422" fill="#84BE84" rx="3" ry="3" style="stroke:#038048;stroke-width:1.0;"/><text fill="#000000" font-family="sans-serif" font-size="14" lengthAdjust="spacing" textLength="488" x="1210" y="222.0889">getAmountForTransfer(moneyTransferId: MoneyTransferId): Amount</text><ellipse cx="1201" cy="235.0391" fill="#84BE84" rx="3" ry="3" style="stroke:#038048;stroke-width:1.0;"/><text fill="#000000" font-family="sans-serif" font-size="14" lengthAdjust="spacing" textLength="461" x="1210" y="238.3857">hasMoneyTransfer(moneyTransferId: MoneyTransferId): Boolean</text><ellipse cx="1201" cy="251.3359" fill="#84BE84" rx="3" ry="3" style="stroke:#038048;stroke-width:1.0;"/><text fill="#000000" font-family="sans-serif" font-size="14" lengthAdjust="spacing" textLength="471" x="1210" y="254.6826">initTransfer(moneyTransferId: MoneyTransferId, amount: Amount)</text><ellipse cx="1201" cy="267.6328" fill="#84BE84" rx="3" ry="3" style="stroke:#038048;stroke-width:1.0;"/><text fill="#000000" font-family="sans-serif" font-size="14" lengthAdjust="spacing" textLength="388" x="1210" y="270.9795">completeTransfer(moneyTransferId: MoneyTransferId)</text><ellipse cx="1201" cy="283.9297" fill="#84BE84" rx="3" ry="3" style="stroke:#038048;stroke-width:1.0;"/><text fill="#000000" font-family="sans-serif" font-size="14" lengthAdjust="spacing" textLength="368" x="1210" y="287.2764">cancelTransfer(moneyTransferId: MoneyTransferId)</text></g><!--class BankAccountCurrentBalance--><g id="elem_BankAccountCurrentBalance"><rect codeLine="51" fill="#F1F1F1" height="72.5938" id="BankAccountCurrentBalance" rx="2.5" ry="2.5" style="stroke:#181818;stroke-width:0.5;" width="238" x="3298" y="177"/><ellipse cx="3313" cy="193" fill="#ADD1B2" rx="11" ry="11" style="stroke:#181818;stroke-width:1.0;"/><path d="M3317.1094,199 L3309.3906,199 L3309.3906,186.6094 L3317.1094,186.6094 L3317.1094,188.7656 L3311.8438,188.7656 L3311.8438,191.4375 L3316.6094,191.4375 L3316.6094,193.5938 L3311.8438,193.5938 L3311.8438,196.8438 L3317.1094,196.8438 L3317.1094,199 Z " fill="#000000"/><text fill="#000000" font-family="sans-serif" font-size="14" lengthAdjust="spacing" textLength="206" x="3327" y="197.8467">BankAccountCurrentBalance</text><line style="stroke:#181818;stroke-width:0.5;" x1="3299" x2="3535" y1="209" y2="209"/><rect fill="none" height="6" style="stroke:#C82930;stroke-width:1.0;" width="6" x="3306" y="219.6484"/><text fill="#000000" font-family="sans-serif" font-size="14" lengthAdjust="spacing" textLength="154" x="3318" y="225.9951">accountId: AccountId,</text><rect fill="none" height="6" style="stroke:#C82930;stroke-width:1.0;" width="6" x="3306" y="235.9453"/><text fill="#000000" font-family="sans-serif" font-size="14" lengthAdjust="spacing" textLength="124" x="3318" y="242.292">balance: Balance</text></g><!--class BankAccountMoneyTransfer--><g id="elem_BankAccountMoneyTransfer"><rect codeLine="56" fill="#F1F1F1" height="137.7813" id="BankAccountMoneyTransfer" rx="2.5" ry="2.5" style="stroke:#181818;stroke-width:0.5;" width="306" x="2957" y="144.5"/><ellipse cx="3005.25" cy="160.5" fill="#ADD1B2" rx="11" ry="11" style="stroke:#181818;stroke-width:1.0;"/><path d="M3009.3594,166.5 L3001.6406,166.5 L3001.6406,154.1094 L3009.3594,154.1094 L3009.3594,156.2656 L3004.0938,156.2656 L3004.0938,158.9375 L3008.8594,158.9375 L3008.8594,161.0938 L3004.0938,161.0938 L3004.0938,164.3438 L3009.3594,164.3438 L3009.3594,166.5 Z " fill="#000000"/><text fill="#000000" font-family="sans-serif" font-size="14" lengthAdjust="spacing" textLength="201" x="3025.75" y="165.3467">BankAccountMoneyTransfer</text><line style="stroke:#181818;stroke-width:0.5;" x1="2958" x2="3262" y1="176.5" y2="176.5"/><rect fill="none" height="6" style="stroke:#C82930;stroke-width:1.0;" width="6" x="2965" y="187.1484"/><text fill="#000000" font-family="sans-serif" font-size="14" lengthAdjust="spacing" textLength="251" x="2977" y="193.4951">moneyTransferId: MoneyTransferId</text><rect fill="none" height="6" style="stroke:#C82930;stroke-width:1.0;" width="6" x="2965" y="203.4453"/><text fill="#000000" font-family="sans-serif" font-size="14" lengthAdjust="spacing" textLength="199" x="2977" y="209.792">sourceAccountId: AccountId</text><rect fill="none" height="6" style="stroke:#C82930;stroke-width:1.0;" width="6" x="2965" y="219.7422"/><text fill="#000000" font-family="sans-serif" font-size="14" lengthAdjust="spacing" textLength="194" x="2977" y="226.0889">targetAccountId: AccountId</text><rect fill="none" height="6" style="stroke:#C82930;stroke-width:1.0;" width="6" x="2965" y="236.0391"/><text fill="#000000" font-family="sans-serif" font-size="14" lengthAdjust="spacing" textLength="120" x="2977" y="242.3857">amount: Amount</text><rect fill="none" height="6" style="stroke:#C82930;stroke-width:1.0;" width="6" x="2965" y="252.3359"/><text fill="#000000" font-family="sans-serif" font-size="14" lengthAdjust="spacing" textLength="176" x="2977" y="258.6826">success: Boolean? = null</text><rect fill="none" height="6" style="stroke:#C82930;stroke-width:1.0;" width="6" x="2965" y="268.6328"/><text fill="#000000" font-family="sans-serif" font-size="14" lengthAdjust="spacing" textLength="280" x="2977" y="274.9795">errorMessage: RejectionReason? = null</text></g><!--class AccountId--><g id="elem_AccountId"><rect codeLine="68" fill="#F1F1F1" height="32" id="AccountId" rx="2.5" ry="2.5" style="stroke:#181818;stroke-width:0.5;" width="103" x="2113.5" y="197.5"/><ellipse cx="2128.5" cy="213.5" fill="#DA70D6" rx="11" ry="11" style="stroke:#181818;stroke-width:1.0;"/><path d="M2128.6094,217.9531 L2130.7969,207.6094 L2133.2656,207.6094 L2130.3125,220 L2126.9219,220 L2123.9688,207.6094 L2126.4375,207.6094 L2128.6094,217.9531 Z " fill="#000000"/><text fill="#000000" font-family="sans-serif" font-size="14" lengthAdjust="spacing" textLength="71" x="2142.5" y="218.3467">AccountId</text></g><!--class Amount--><g id="elem_Amount"><rect codeLine="69" fill="#F1F1F1" height="32" id="Amount" rx="2.5" ry="2.5" style="stroke:#181818;stroke-width:0.5;" width="88" x="2252" y="197.5"/><ellipse cx="2267" cy="213.5" fill="#DA70D6" rx="11" ry="11" style="stroke:#181818;stroke-width:1.0;"/><path d="M2267.1094,217.9531 L2269.2969,207.6094 L2271.7656,207.6094 L2268.8125,220 L2265.4219,220 L2262.4688,207.6094 L2264.9375,207.6094 L2267.1094,217.9531 Z " fill="#000000"/><text fill="#000000" font-family="sans-serif" font-size="14" lengthAdjust="spacing" textLength="56" x="2281" y="218.3467">Amount</text></g><!--class Balance--><g id="elem_Balance"><rect codeLine="70" fill="#F1F1F1" height="32" id="Balance" rx="2.5" ry="2.5" style="stroke:#181818;stroke-width:0.5;" width="90" x="2375" y="197.5"/><ellipse cx="2390" cy="213.5" fill="#DA70D6" rx="11" ry="11" style="stroke:#181818;stroke-width:1.0;"/><path d="M2390.1094,217.9531 L2392.2969,207.6094 L2394.7656,207.6094 L2391.8125,220 L2388.4219,220 L2385.4688,207.6094 L2387.9375,207.6094 L2390.1094,217.9531 Z " fill="#000000"/><text fill="#000000" font-family="sans-serif" font-size="14" lengthAdjust="spacing" textLength="58" x="2404" y="218.3467">Balance</text></g><!--class ReservedAmount--><g id="elem_ReservedAmount"><rect codeLine="71" fill="#F1F1F1" height="32" id="ReservedAmount" rx="2.5" ry="2.5" style="stroke:#181818;stroke-width:0.5;" width="155" x="2500.5" y="197.5"/><ellipse cx="2515.5" cy="213.5" fill="#DA70D6" rx="11" ry="11" style="stroke:#181818;stroke-width:1.0;"/><path d="M2515.6094,217.9531 L2517.7969,207.6094 L2520.2656,207.6094 L2517.3125,220 L2513.9219,220 L2510.9688,207.6094 L2513.4375,207.6094 L2515.6094,217.9531 Z " fill="#000000"/><text fill="#000000" font-family="sans-serif" font-size="14" lengthAdjust="spacing" textLength="123" x="2529.5" y="218.3467">ReservedAmount</text></g><!--class CurrentBalance--><g id="elem_CurrentBalance"><rect codeLine="72" fill="#F1F1F1" height="72.5938" id="CurrentBalance" rx="2.5" ry="2.5" style="stroke:#181818;stroke-width:0.5;" width="176" x="2077" y="470"/><ellipse cx="2106.4" cy="486" fill="#DA70D6" rx="11" ry="11" style="stroke:#181818;stroke-width:1.0;"/><path d="M2106.5094,490.4531 L2108.6969,480.1094 L2111.1656,480.1094 L2108.2125,492.5 L2104.8219,492.5 L2101.8688,480.1094 L2104.3375,480.1094 L2106.5094,490.4531 Z " fill="#000000"/><text fill="#000000" font-family="sans-serif" font-size="14" lengthAdjust="spacing" textLength="112" x="2123.6" y="490.8467">CurrentBalance</text><line style="stroke:#181818;stroke-width:0.5;" x1="2078" x2="2252" y1="502" y2="502"/><rect fill="none" height="6" style="stroke:#C82930;stroke-width:1.0;" width="6" x="2085" y="512.6484"/><text fill="#000000" font-family="sans-serif" font-size="14" lengthAdjust="spacing" textLength="150" x="2097" y="518.9951">accountId: AccountId</text><rect fill="none" height="6" style="stroke:#C82930;stroke-width:1.0;" width="6" x="2085" y="528.9453"/><text fill="#000000" font-family="sans-serif" font-size="14" lengthAdjust="spacing" textLength="124" x="2097" y="535.292">balance: Balance</text></g><!--class MoneyTransferId--><g id="elem_MoneyTransferId"><rect codeLine="76" fill="#F1F1F1" height="32" id="MoneyTransferId" rx="2.5" ry="2.5" style="stroke:#181818;stroke-width:0.5;" width="152" x="2288" y="490.5"/><ellipse cx="2303" cy="506.5" fill="#DA70D6" rx="11" ry="11" style="stroke:#181818;stroke-width:1.0;"/><path d="M2303.1094,510.9531 L2305.2969,500.6094 L2307.7656,500.6094 L2304.8125,513 L2301.4219,513 L2298.4688,500.6094 L2300.9375,500.6094 L2303.1094,510.9531 Z " fill="#000000"/><text fill="#000000" font-family="sans-serif" font-size="14" lengthAdjust="spacing" textLength="120" x="2317" y="511.3467">MoneyTransferId</text></g><!--class MoneyTransferStatus--><g id="elem_MoneyTransferStatus"><rect codeLine="77" fill="#F1F1F1" height="32" id="MoneyTransferStatus" rx="2.5" ry="2.5" style="stroke:#181818;stroke-width:0.5;" width="183" x="2475.5" y="490.5"/><ellipse cx="2490.5" cy="506.5" fill="#DA70D6" rx="11" ry="11" style="stroke:#181818;stroke-width:1.0;"/><path d="M2490.6094,510.9531 L2492.7969,500.6094 L2495.2656,500.6094 L2492.3125,513 L2488.9219,513 L2485.9688,500.6094 L2488.4375,500.6094 L2490.6094,510.9531 Z " fill="#000000"/><text fill="#000000" font-family="sans-serif" font-size="14" lengthAdjust="spacing" textLength="151" x="2504.5" y="511.3467">MoneyTransferStatus</text></g><!--class MoneyTransferSummaries--><g id="elem_MoneyTransferSummaries"><rect codeLine="78" fill="#F1F1F1" height="32" id="MoneyTransferSummaries" rx="2.5" ry="2.5" style="stroke:#181818;stroke-width:0.5;" width="220" x="1791" y="197.5"/><ellipse cx="1806" cy="213.5" fill="#DA70D6" rx="11" ry="11" style="stroke:#181818;stroke-width:1.0;"/><path d="M1806.1094,217.9531 L1808.2969,207.6094 L1810.7656,207.6094 L1807.8125,220 L1804.4219,220 L1801.4688,207.6094 L1803.9375,207.6094 L1806.1094,217.9531 Z " fill="#000000"/><text fill="#000000" font-family="sans-serif" font-size="14" lengthAdjust="spacing" textLength="188" x="1820" y="218.3467">MoneyTransferSummaries</text></g><!--class MoneyTransferSummary--><g id="elem_MoneyTransferSummary"><rect codeLine="80" fill="#F1F1F1" height="121.4844" id="MoneyTransferSummary" rx="2.5" ry="2.5" style="stroke:#181818;stroke-width:0.5;" width="281" x="1760.5" y="446"/><ellipse cx="1808.75" cy="462" fill="#ADD1B2" rx="11" ry="11" style="stroke:#181818;stroke-width:1.0;"/><path d="M1812.8594,468 L1805.1406,468 L1805.1406,455.6094 L1812.8594,455.6094 L1812.8594,457.7656 L1807.5938,457.7656 L1807.5938,460.4375 L1812.3594,460.4375 L1812.3594,462.5938 L1807.5938,462.5938 L1807.5938,465.8438 L1812.8594,465.8438 L1812.8594,468 Z " fill="#000000"/><text fill="#000000" font-family="sans-serif" font-size="14" lengthAdjust="spacing" textLength="176" x="1829.25" y="466.8467">MoneyTransferSummary</text><line style="stroke:#181818;stroke-width:0.5;" x1="1761.5" x2="2040.5" y1="478" y2="478"/><rect fill="none" height="6" style="stroke:#C82930;stroke-width:1.0;" width="6" x="1768.5" y="488.6484"/><text fill="#000000" font-family="sans-serif" font-size="14" lengthAdjust="spacing" textLength="255" x="1780.5" y="494.9951">moneyTransferId: MoneyTransferId,</text><rect fill="none" height="6" style="stroke:#C82930;stroke-width:1.0;" width="6" x="1768.5" y="504.9453"/><text fill="#000000" font-family="sans-serif" font-size="14" lengthAdjust="spacing" textLength="203" x="1780.5" y="511.292">sourceAccountId: AccountId,</text><rect fill="none" height="6" style="stroke:#C82930;stroke-width:1.0;" width="6" x="1768.5" y="521.2422"/><text fill="#000000" font-family="sans-serif" font-size="14" lengthAdjust="spacing" textLength="198" x="1780.5" y="527.5889">targetAccountId: AccountId,</text><rect fill="none" height="6" style="stroke:#C82930;stroke-width:1.0;" width="6" x="1768.5" y="537.5391"/><text fill="#000000" font-family="sans-serif" font-size="14" lengthAdjust="spacing" textLength="124" x="1780.5" y="543.8857">amount: Amount,</text><rect fill="none" height="6" style="stroke:#C82930;stroke-width:1.0;" width="6" x="1768.5" y="553.8359"/><text fill="#000000" font-family="sans-serif" font-size="14" lengthAdjust="spacing" textLength="202" x="1780.5" y="560.1826">status: MoneyTransferStatus</text></g><!--class MoneyTransferNotFound--><g id="elem_MoneyTransferNotFound"><rect codeLine="88" fill="#F1F1F1" height="32" id="MoneyTransferNotFound" rx="2.5" ry="2.5" style="stroke:#181818;stroke-width:0.5;" width="207" x="2693.5" y="490.5"/><ellipse cx="2708.5" cy="506.5" fill="#FFA500" rx="11" ry="11" style="stroke:#181818;stroke-width:1.0;"/><path d="M2712.6094,512.5 L2704.8906,512.5 L2704.8906,500.1094 L2712.6094,500.1094 L2712.6094,502.2656 L2707.3438,502.2656 L2707.3438,504.9375 L2712.1094,504.9375 L2712.1094,507.0938 L2707.3438,507.0938 L2707.3438,510.3438 L2712.6094,510.3438 L2712.6094,512.5 Z " fill="#000000"/><text fill="#000000" font-family="sans-serif" font-size="14" lengthAdjust="spacing" textLength="175" x="2722.5" y="511.3467">MoneyTransferNotFound</text></g><!--class InsufficientBalance--><g id="elem_InsufficientBalance"><rect codeLine="89" fill="#F1F1F1" height="32" id="InsufficientBalance" rx="2.5" ry="2.5" style="stroke:#181818;stroke-width:0.5;" width="168" x="2081" y="627"/><ellipse cx="2096" cy="643" fill="#FFA500" rx="11" ry="11" style="stroke:#181818;stroke-width:1.0;"/><path d="M2100.1094,649 L2092.3906,649 L2092.3906,636.6094 L2100.1094,636.6094 L2100.1094,638.7656 L2094.8438,638.7656 L2094.8438,641.4375 L2099.6094,641.4375 L2099.6094,643.5938 L2094.8438,643.5938 L2094.8438,646.8438 L2100.1094,646.8438 L2100.1094,649 Z " fill="#000000"/><text fill="#000000" font-family="sans-serif" font-size="14" lengthAdjust="spacing" textLength="136" x="2110" y="647.8467">InsufficientBalance</text></g><!--class MaximumBalanceExceeded--><g id="elem_MaximumBalanceExceeded"><rect codeLine="90" fill="#F1F1F1" height="32" id="MaximumBalanceExceeded" rx="2.5" ry="2.5" style="stroke:#181818;stroke-width:0.5;" width="230" x="2284" y="627"/><ellipse cx="2299" cy="643" fill="#FFA500" rx="11" ry="11" style="stroke:#181818;stroke-width:1.0;"/><path d="M2303.1094,649 L2295.3906,649 L2295.3906,636.6094 L2303.1094,636.6094 L2303.1094,638.7656 L2297.8438,638.7656 L2297.8438,641.4375 L2302.6094,641.4375 L2302.6094,643.5938 L2297.8438,643.5938 L2297.8438,646.8438 L2303.1094,646.8438 L2303.1094,649 Z " fill="#000000"/><text fill="#000000" font-family="sans-serif" font-size="14" lengthAdjust="spacing" textLength="198" x="2313" y="647.8467">MaximumBalanceExceeded</text></g><!--reverse link MoneyTransferSummaries to MoneyTransferSummary--><g id="link_MoneyTransferSummaries_MoneyTransferSummary"><path codeLine="93" d="M1901,242.67 C1901,242.67 1901,445.76 1901,445.76 " fill="none" id="MoneyTransferSummaries-backto-MoneyTransferSummary" style="stroke:#181818;stroke-width:1.0;"/><polygon fill="#181818" points="1901,229.67,1897,235.67,1901,241.67,1905,235.67,1901,229.67" style="stroke:#181818;stroke-width:1.0;"/></g><!--link BankAccount to ActiveMoneyTransfers--><g id="link_BankAccount_ActiveMoneyTransfers"><path codeLine="94" d="M1154.8,214 C1154.8,214 1184.92,214 1184.92,214 " fill="none" id="BankAccount-to-ActiveMoneyTransfers" style="stroke:#181818;stroke-width:1.0;"/><polygon fill="#181818" points="1189.92,214,1180.92,210,1184.92,214,1180.92,218,1189.92,214" style="stroke:#181818;stroke-width:1.0;"/></g><!--reverse link BankAccountBalance to BankAccount--><g id="link_BankAccountBalance_BankAccount"><path codeLine="95" d="M409.63,214 C409.63,214 439.41,214 439.41,214 " fill="none" id="BankAccountBalance-backto-BankAccount" style="stroke:#181818;stroke-width:1.0;"/><polygon fill="#181818" points="404.63,214,413.63,218,409.63,214,413.63,210,404.63,214" style="stroke:#181818;stroke-width:1.0;"/></g><!--SRC=[hLVBSjim3BphAtYqMpiVa4dToQipERY7jDEU6GgssKYaIr9nN8__lT3JX4GfSYQ-H24N2n1OG9JJM-OqUzBEwPJ5qe1mKgieiizIRRdXAKka0hVV0jF6RNGKRRbuvcjWGgSfLp4xH1737oWdtPxTSFLyBOJEbCCTLltcZ9Th3_4bkwuVPzx-4q-u4h3KCIINFijDkJ4ZN4w-85J1_gVXogx0s9oskreONLom5PfeiyV7XkOpErZ7dHH79fLqaYVo7rG-9y5eQrmLKHvbyJ0byTOkNv0mvdaoMGgOkDXIxp5ijPMkY7V2qzmKdHL_aR1OlYiX4D-_G4LSskwasyI6xuQCVrSOrJOsy3S3wqYY9gd_Ntxi9LsOOV0NqzRoOydKZGzL1ErQlDT5mTJnWEBR9k0-miLjHTNraHSt-GWF1L7YUq0KIpFNrWTHY5J20BTGoQnTPwAbiSYJrCyzLpydpWEbTtYyDOGIYoTyatuKNPb5VWRXiHnD8k7M1cOAkxgQ_9ff8pOodYuMP5w9p1Xea4slUuYKlyeqIuSGcEqXH26nXwhAtJQ-qJe1hYZy3iR3PJzr9nS1DOqs8saEZU6XH8U7-P9lhpeIBEDOUA6kmJs21OCJejoSO9HqXQBBjM_QZ5R-j3w_HxJXzhpswIcFT1_IWFKm71zEPygTQNgCZgUB0Bu4yDLwwBa5t996Qae_V2DexWEqQOvzLmqIfEVZhTCqGAip8-0w4583STpa0Xg2q1ATo3CXmDf60r_P5wQo96a0O8msIuHWEdFz_YblOO_OXPgYCGDUvejhsO4qNnLIg-DyI15R_tvuDde0sbxzk5RX1qT0Rqu7f73or2fgVqW4-0FVlfaT2yxmiciaTF2-80CM-pF4E1kXnja8ESvwzEZn5qU_3EMZEz09wBl6uPcf8iVtc0Qkra3Jzg1ijbf98Mdjm-0bUOVUlmg063ha64vFCJxDutamxP7_7J8tY_3N0G4bYz3xBS8w0zxGqgVSm6xqZdpY36mKTxgeirFdX5W6NvereeG4nLL3YY1x47uShPuavfszdWFGMKie1b0bMPjhA9uXMCds7m00]--></g></svg>