<?xml version="1.0" encoding="UTF-8" standalone="no"?><svg xmlns="http://www.w3.org/2000/svg" xmlns:xlink="http://www.w3.org/1999/xlink" contentStyleType="text/css" height="611px" preserveAspectRatio="none" style="width:1331px;height:611px;background:#FFFFFF;" version="1.1" viewBox="0 0 1331 611" width="1331px" zoomAndPan="magnify"><defs/><g><!--cluster bankaccount--><g id="cluster_bankaccount"><path d="M8.5,6 L109.5,6 A3.75,3.75 0 0 1 112,8.5 L119,28.2969 L751.5,28.2969 A2.5,2.5 0 0 1 754,30.7969 L754,601.5 A2.5,2.5 0 0 1 751.5,604 L8.5,604 A2.5,2.5 0 0 1 6,601.5 L6,8.5 A2.5,2.5 0 0 1 8.5,6 " fill="none" style="stroke:#000000;stroke-width:1.5;"/><line style="stroke:#000000;stroke-width:1.5;" x1="6" x2="119" y1="28.2969" y2="28.2969"/><text fill="#000000" font-family="sans-serif" font-size="14" font-weight="bold" lengthAdjust="spacing" textLength="100" x="10" y="20.9951">bankaccount</text></g><!--cluster moneytransfer--><g id="cluster_moneytransfer"><path d="M780.5,95.5 L899.5,95.5 A3.75,3.75 0 0 1 902,98 L909,117.7969 L1321.5,117.7969 A2.5,2.5 0 0 1 1324,120.2969 L1324,290 A2.5,2.5 0 0 1 1321.5,292.5 L780.5,292.5 A2.5,2.5 0 0 1 778,290 L778,98 A2.5,2.5 0 0 1 780.5,95.5 " fill="none" style="stroke:#000000;stroke-width:1.5;"/><line style="stroke:#000000;stroke-width:1.5;" x1="778" x2="909" y1="117.7969" y2="117.7969"/><text fill="#000000" font-family="sans-serif" font-size="14" font-weight="bold" lengthAdjust="spacing" textLength="118" x="782" y="110.4951">moneytransfer</text></g><!--class BankAccount--><g id="elem_BankAccount"><rect codeLine="4" fill="#F1F1F1" height="325.0469" id="BankAccount" rx="2.5" ry="2.5" style="stroke:#181818;stroke-width:0.5;" width="715" x="22.5" y="41"/><ellipse cx="328.75" cy="57" fill="#ADD1B2" rx="11" ry="11" style="stroke:#181818;stroke-width:1.0;"/><path d="M331.7188,62.6406 Q331.1406,62.9375 330.5,63.0781 Q329.8594,63.2344 329.1563,63.2344 Q326.6563,63.2344 325.3281,61.5938 Q324.0156,59.9375 324.0156,56.8125 Q324.0156,53.6875 325.3281,52.0313 Q326.6563,50.375 329.1563,50.375 Q329.8594,50.375 330.5,50.5313 Q331.1563,50.6875 331.7188,50.9844 L331.7188,53.7031 Q331.0938,53.125 330.5,52.8594 Q329.9063,52.5781 329.2813,52.5781 Q327.9375,52.5781 327.25,53.6563 Q326.5625,54.7188 326.5625,56.8125 Q326.5625,58.9063 327.25,59.9844 Q327.9375,61.0469 329.2813,61.0469 Q329.9063,61.0469 330.5,60.7813 Q331.0938,60.5 331.7188,59.9219 L331.7188,62.6406 Z " fill="#000000"/><text fill="#000000" font-family="sans-serif" font-size="14" lengthAdjust="spacing" textLength="94" x="349.25" y="61.8467">BankAccount</text><line style="stroke:#181818;stroke-width:0.5;" x1="23.5" x2="736.5" y1="73" y2="73"/><rect fill="none" height="6" style="stroke:#C82930;stroke-width:1.0;" width="6" x="30.5" y="83.6484"/><text fill="#000000" font-family="sans-serif" font-size="14" lengthAdjust="spacing" textLength="154" x="42.5" y="89.9951">accountId: AccountId,</text><rect fill="none" height="6" style="stroke:#C82930;stroke-width:1.0;" width="6" x="30.5" y="99.9453"/><text fill="#000000" font-family="sans-serif" font-size="14" lengthAdjust="spacing" textLength="265" x="42.5" y="106.292">balanceModel: BankAccountBalance,</text><rect fill="none" height="6" style="stroke:#C82930;stroke-width:1.0;" width="6" x="30.5" y="116.2422"/><text fill="#000000" font-family="sans-serif" font-size="14" lengthAdjust="spacing" textLength="324" x="42.5" y="122.5889">activeMoneyTransfers: ActiveMoneyTransfers</text><line style="stroke:#181818;stroke-width:0.5;" x1="23.5" x2="736.5" y1="129.8906" y2="129.8906"/><ellipse cx="33.5" cy="143.5391" fill="#84BE84" rx="3" ry="3" style="stroke:#038048;stroke-width:1.0;"/><text fill="#000000" font-family="sans-serif" font-size="14" lengthAdjust="spacing" text-decoration="underline" textLength="552" x="42.5" y="146.8857">initializeAccount(accountId: AccountId, initialBalance: Balance): BankAccount</text><text fill="#000000" font-family="sans-serif" font-size="14" lengthAdjust="spacing" textLength="4" x="42.5" y="163.1826"> </text><ellipse cx="33.5" cy="176.1328" fill="#84BE84" rx="3" ry="3" style="stroke:#038048;stroke-width:1.0;"/><text fill="#000000" font-family="sans-serif" font-size="14" lengthAdjust="spacing" textLength="397" x="42.5" y="179.4795">depositMoney(amount: Amount): MoneyDepositedEvent</text><ellipse cx="33.5" cy="192.4297" fill="#84BE84" rx="3" ry="3" style="stroke:#038048;stroke-width:1.0;"/><text fill="#000000" font-family="sans-serif" font-size="14" lengthAdjust="spacing" textLength="413" x="42.5" y="195.7764">withdrawMoney(amount: Amount): MoneyWithdrawnEvent</text><ellipse cx="33.5" cy="208.7266" fill="#84BE84" rx="3" ry="3" style="stroke:#038048;stroke-width:1.0;"/><text fill="#000000" font-family="sans-serif" font-size="14" lengthAdjust="spacing" textLength="674" x="42.5" y="212.0732">requestMoneyTransfer(moneyTransferId: MoneyTransferId, ...): MoneyTransferRequestedEvent</text><ellipse cx="33.5" cy="225.0234" fill="#84BE84" rx="3" ry="3" style="stroke:#038048;stroke-width:1.0;"/><text fill="#000000" font-family="sans-serif" font-size="14" lengthAdjust="spacing" textLength="663" x="42.5" y="228.3701">receiveMoneyTransfer(moneyTransferId: MoneyTransferId, ...): MoneyTransferReceivedEvent</text><ellipse cx="33.5" cy="241.3203" fill="#84BE84" rx="3" ry="3" style="stroke:#038048;stroke-width:1.0;"/><text fill="#000000" font-family="sans-serif" font-size="14" lengthAdjust="spacing" textLength="689" x="42.5" y="244.667">completeMoneyTransfer(moneyTransferId: MoneyTransferId, ...): MoneyTransferCompletedEvent</text><ellipse cx="33.5" cy="257.6172" fill="#84BE84" rx="3" ry="3" style="stroke:#038048;stroke-width:1.0;"/><text fill="#000000" font-family="sans-serif" font-size="14" lengthAdjust="spacing" textLength="662" x="42.5" y="260.9639">cancelMoneyTransfer(moneyTransferId: MoneyTransferId, ...): MoneyTransferCancelledEvent</text><text fill="#000000" font-family="sans-serif" font-size="14" lengthAdjust="spacing" textLength="4" x="42.5" y="277.2607"> </text><ellipse cx="33.5" cy="290.2109" fill="#84BE84" rx="3" ry="3" style="stroke:#038048;stroke-width:1.0;"/><text fill="#000000" font-family="sans-serif" font-size="14" lengthAdjust="spacing" textLength="249" x="42.5" y="293.5576">increaseBalance(amount: Amount)</text><ellipse cx="33.5" cy="306.5078" fill="#84BE84" rx="3" ry="3" style="stroke:#038048;stroke-width:1.0;"/><text fill="#000000" font-family="sans-serif" font-size="14" lengthAdjust="spacing" textLength="254" x="42.5" y="309.8545">decreaseBalance(amount: Amount)</text><ellipse cx="33.5" cy="322.8047" fill="#84BE84" rx="3" ry="3" style="stroke:#038048;stroke-width:1.0;"/><text fill="#000000" font-family="sans-serif" font-size="14" lengthAdjust="spacing" textLength="555" x="42.5" y="326.1514">initializeMoneyTransfer(moneyTransferId: MoneyTransferId, amount: Amount)</text><ellipse cx="33.5" cy="339.1016" fill="#84BE84" rx="3" ry="3" style="stroke:#038048;stroke-width:1.0;"/><text fill="#000000" font-family="sans-serif" font-size="14" lengthAdjust="spacing" textLength="544" x="42.5" y="342.4482">acknowledgeMoneyTransferCompletion(moneyTransferId: MoneyTransferId)</text><ellipse cx="33.5" cy="355.3984" fill="#84BE84" rx="3" ry="3" style="stroke:#038048;stroke-width:1.0;"/><text fill="#000000" font-family="sans-serif" font-size="14" lengthAdjust="spacing" textLength="551" x="42.5" y="358.7451">acknowledgeMoneyTransferCancellation(moneyTransferId: MoneyTransferId)</text></g><!--class BankAccountBalance--><g id="elem_BankAccountBalance"><rect codeLine="24" fill="#F1F1F1" height="162.0781" id="BankAccountBalance" rx="2.5" ry="2.5" style="stroke:#181818;stroke-width:0.5;" width="383" x="188.5" y="426"/><ellipse cx="299.75" cy="442" fill="#ADD1B2" rx="11" ry="11" style="stroke:#181818;stroke-width:1.0;"/><path d="M302.7188,447.6406 Q302.1406,447.9375 301.5,448.0781 Q300.8594,448.2344 300.1563,448.2344 Q297.6563,448.2344 296.3281,446.5938 Q295.0156,444.9375 295.0156,441.8125 Q295.0156,438.6875 296.3281,437.0313 Q297.6563,435.375 300.1563,435.375 Q300.8594,435.375 301.5,435.5313 Q302.1563,435.6875 302.7188,435.9844 L302.7188,438.7031 Q302.0938,438.125 301.5,437.8594 Q300.9063,437.5781 300.2813,437.5781 Q298.9375,437.5781 298.25,438.6563 Q297.5625,439.7188 297.5625,441.8125 Q297.5625,443.9063 298.25,444.9844 Q298.9375,446.0469 300.2813,446.0469 Q300.9063,446.0469 301.5,445.7813 Q302.0938,445.5 302.7188,444.9219 L302.7188,447.6406 Z " fill="#000000"/><text fill="#000000" font-family="sans-serif" font-size="14" lengthAdjust="spacing" textLength="152" x="320.25" y="446.8467">BankAccountBalance</text><line style="stroke:#181818;stroke-width:0.5;" x1="189.5" x2="570.5" y1="458" y2="458"/><rect fill="none" height="6" style="stroke:#C82930;stroke-width:1.0;" width="6" x="196.5" y="468.6484"/><text fill="#000000" font-family="sans-serif" font-size="14" lengthAdjust="spacing" textLength="177" x="208.5" y="474.9951">currentBalance: Balance</text><rect fill="none" height="6" style="stroke:#C82930;stroke-width:1.0;" width="6" x="196.5" y="484.9453"/><text fill="#000000" font-family="sans-serif" font-size="14" lengthAdjust="spacing" textLength="197" x="208.5" y="491.292">maximumBalance: Balance</text><rect fill="none" height="6" style="stroke:#C82930;stroke-width:1.0;" width="6" x="196.5" y="501.2422"/><text fill="#000000" font-family="sans-serif" font-size="14" lengthAdjust="spacing" textLength="193" x="208.5" y="507.5889">minimumBalance: Balance</text><line style="stroke:#181818;stroke-width:0.5;" x1="189.5" x2="570.5" y1="514.8906" y2="514.8906"/><ellipse cx="199.5" cy="528.5391" fill="#84BE84" rx="3" ry="3" style="stroke:#038048;stroke-width:1.0;"/><text fill="#000000" font-family="sans-serif" font-size="14" lengthAdjust="spacing" textLength="285" x="208.5" y="531.8857">canIncrease(amount: Amount): Boolean</text><ellipse cx="199.5" cy="544.8359" fill="#84BE84" rx="3" ry="3" style="stroke:#038048;stroke-width:1.0;"/><text fill="#000000" font-family="sans-serif" font-size="14" lengthAdjust="spacing" textLength="292" x="208.5" y="548.1826">canDecrease(amount: Amount): Boolean</text><ellipse cx="199.5" cy="561.1328" fill="#84BE84" rx="3" ry="3" style="stroke:#038048;stroke-width:1.0;"/><text fill="#000000" font-family="sans-serif" font-size="14" lengthAdjust="spacing" textLength="352" x="208.5" y="564.4795">increase(amount: Amount): BankAccountBalance</text><ellipse cx="199.5" cy="577.4297" fill="#84BE84" rx="3" ry="3" style="stroke:#038048;stroke-width:1.0;"/><text fill="#000000" font-family="sans-serif" font-size="14" lengthAdjust="spacing" textLength="357" x="208.5" y="580.7764">decrease(amount: Amount): BankAccountBalance</text></g><!--class ActiveMoneyTransfers--><g id="elem_ActiveMoneyTransfers"><rect codeLine="37" fill="#F1F1F1" height="145.7813" id="ActiveMoneyTransfers" rx="2.5" ry="2.5" style="stroke:#181818;stroke-width:0.5;" width="514" x="794" y="130.5"/><ellipse cx="967.75" cy="146.5" fill="#ADD1B2" rx="11" ry="11" style="stroke:#181818;stroke-width:1.0;"/><path d="M970.7188,152.1406 Q970.1406,152.4375 969.5,152.5781 Q968.8594,152.7344 968.1563,152.7344 Q965.6563,152.7344 964.3281,151.0938 Q963.0156,149.4375 963.0156,146.3125 Q963.0156,143.1875 964.3281,141.5313 Q965.6563,139.875 968.1563,139.875 Q968.8594,139.875 969.5,140.0313 Q970.1563,140.1875 970.7188,140.4844 L970.7188,143.2031 Q970.0938,142.625 969.5,142.3594 Q968.9063,142.0781 968.2813,142.0781 Q966.9375,142.0781 966.25,143.1563 Q965.5625,144.2188 965.5625,146.3125 Q965.5625,148.4063 966.25,149.4844 Q966.9375,150.5469 968.2813,150.5469 Q968.9063,150.5469 969.5,150.2813 Q970.0938,150 970.7188,149.4219 L970.7188,152.1406 Z " fill="#000000"/><text fill="#000000" font-family="sans-serif" font-size="14" lengthAdjust="spacing" textLength="158" x="988.25" y="151.3467">ActiveMoneyTransfers</text><line style="stroke:#181818;stroke-width:0.5;" x1="795" x2="1307" y1="162.5" y2="162.5"/><line style="stroke:#181818;stroke-width:0.5;" x1="795" x2="1307" y1="170.5" y2="170.5"/><ellipse cx="805" cy="184.1484" fill="#84BE84" rx="3" ry="3" style="stroke:#038048;stroke-width:1.0;"/><text fill="#000000" font-family="sans-serif" font-size="14" lengthAdjust="spacing" textLength="288" x="814" y="187.4951">getReservedAmount(): ReservedAmount</text><ellipse cx="805" cy="200.4453" fill="#84BE84" rx="3" ry="3" style="stroke:#038048;stroke-width:1.0;"/><text fill="#000000" font-family="sans-serif" font-size="14" lengthAdjust="spacing" textLength="488" x="814" y="203.792">getAmountForTransfer(moneyTransferId: MoneyTransferId): Amount</text><ellipse cx="805" cy="216.7422" fill="#84BE84" rx="3" ry="3" style="stroke:#038048;stroke-width:1.0;"/><text fill="#000000" font-family="sans-serif" font-size="14" lengthAdjust="spacing" textLength="461" x="814" y="220.0889">hasMoneyTransfer(moneyTransferId: MoneyTransferId): Boolean</text><ellipse cx="805" cy="233.0391" fill="#84BE84" rx="3" ry="3" style="stroke:#038048;stroke-width:1.0;"/><text fill="#000000" font-family="sans-serif" font-size="14" lengthAdjust="spacing" textLength="471" x="814" y="236.3857">initTransfer(moneyTransferId: MoneyTransferId, amount: Amount)</text><ellipse cx="805" cy="249.3359" fill="#84BE84" rx="3" ry="3" style="stroke:#038048;stroke-width:1.0;"/><text fill="#000000" font-family="sans-serif" font-size="14" lengthAdjust="spacing" textLength="388" x="814" y="252.6826">completeTransfer(moneyTransferId: MoneyTransferId)</text><ellipse cx="805" cy="265.6328" fill="#84BE84" rx="3" ry="3" style="stroke:#038048;stroke-width:1.0;"/><text fill="#000000" font-family="sans-serif" font-size="14" lengthAdjust="spacing" textLength="368" x="814" y="268.9795">cancelTransfer(moneyTransferId: MoneyTransferId)</text></g><!--link BankAccount to ActiveMoneyTransfers--><g id="link_BankAccount_ActiveMoneyTransfers"><path codeLine="49" d="M737.78,203.5 C754.69,203.5 771.6,203.5 788.51,203.5 " fill="none" id="BankAccount-to-ActiveMoneyTransfers" style="stroke:#181818;stroke-width:1.0;"/><polygon fill="#181818" points="793.76,203.5,784.76,199.5,788.76,203.5,784.76,207.5,793.76,203.5" style="stroke:#181818;stroke-width:1.0;"/></g><!--link BankAccount to BankAccountBalance--><g id="link_BankAccount_BankAccountBalance"><path codeLine="50" d="M380,366.28 C380,385.02 380,403.53 380,420.64 " fill="none" id="BankAccount-to-BankAccountBalance" style="stroke:#181818;stroke-width:1.0;"/><polygon fill="#181818" points="380,425.91,384,416.91,380,420.91,376,416.91,380,425.91" style="stroke:#181818;stroke-width:1.0;"/></g><!--SRC=[hPNDRi8m3CVlVOeSY_Xu00wJO6mI1oveqiuczI1QctH92jiGxxuqJJzIoYWRg1Aj_VSlhkEuAT1ts2BP07y7IaN6DJa60Or1AJ8tnbbb9EOt9awqZAPaLjwEd6y3CN2AAn5XF6r6pml7g69ejZSoZbyl4hXwGwbotBdL1Wp9KMdGZ9u8uqmpYDatEdBOcK-fS-lckTYRWPTLuEWHfa8nRLSE8SbT1cR_JO0rBme9HazxD855t87fNIJXy5lWgzFmPg34ZmoLzburJ9fF-UkiVCE8J2QJGSkyBaX-NX8fjYlvLxmbUNGgaZH6VG_yeqFv_7oZudlGBIWkwGxFE9K82br7jBUjQea-gheRRqstcsVE8XS7a_4Mk-h41B-AleegYW8zOQUEKU1gKaq4cac9bRawQywRm2TBikIIrvJmajUsmj9jr_dncWiH8_1Qki1-KdOPUVQIhNRe5NBAgvQwkMfBh5r5wydQDUjSGOTaYtgD2gKvUCKweLd8jzJAulbPoDxTDoZJTv0TgDlQjwEYJF-x-SkvqZyDRs3S46Qsnrn1y-isbkE7xW-GfpAYZWt_0G00]--></g></svg>