<?xml version="1.0" encoding="UTF-8" standalone="no"?><svg xmlns="http://www.w3.org/2000/svg" xmlns:xlink="http://www.w3.org/1999/xlink" contentStyleType="text/css" height="661px" preserveAspectRatio="none" style="width:712px;height:661px;background:#FFFFFF;" version="1.1" viewBox="0 0 712 661" width="712px" zoomAndPan="magnify"><defs/><g><!--cluster Application--><g id="cluster_Application"><path d="M129.05,93 L220.05,93 A3.75,3.75 0 0 1 222.55,95.5 L229.55,115.2969 L270.05,115.2969 A2.5,2.5 0 0 1 272.55,117.7969 L272.55,262.5 A2.5,2.5 0 0 1 270.05,265 L129.05,265 A2.5,2.5 0 0 1 126.55,262.5 L126.55,95.5 A2.5,2.5 0 0 1 129.05,93 " fill="none" style="stroke:#000000;stroke-width:1.5;"/><line style="stroke:#000000;stroke-width:1.5;" x1="126.55" x2="229.55" y1="115.2969" y2="115.2969"/><text fill="#000000" font-family="sans-serif" font-size="14" font-weight="bold" lengthAdjust="spacing" textLength="90" x="130.55" y="107.9951">Application</text></g><!--cluster Adapter--><g id="cluster_Adapter"><rect fill="none" height="366" rx="2.5" ry="2.5" style="stroke:#181818;stroke-width:1.0;" width="620" x="86.05" y="289"/><rect fill="none" height="10" style="stroke:#181818;stroke-width:1.0;" width="15" x="686.05" y="294"/><rect fill="none" height="2" style="stroke:#181818;stroke-width:1.0;" width="4" x="684.05" y="296"/><rect fill="none" height="2" style="stroke:#181818;stroke-width:1.0;" width="4" x="684.05" y="300"/><text fill="#000000" font-family="sans-serif" font-size="14" font-weight="bold" lengthAdjust="spacing" textLength="64" x="364.05" y="314.9951">Adapter</text></g><!--cluster Command Model--><g id="cluster_Command Model"><rect fill="none" height="97" rx="2.5" ry="2.5" style="stroke:#181818;stroke-width:1.0;" width="340.5" x="341.05" y="332"/><rect fill="none" height="10" style="stroke:#181818;stroke-width:1.0;" width="15" x="661.55" y="337"/><rect fill="none" height="2" style="stroke:#181818;stroke-width:1.0;" width="4" x="659.55" y="339"/><rect fill="none" height="2" style="stroke:#181818;stroke-width:1.0;" width="4" x="659.55" y="343"/><text fill="#000000" font-family="sans-serif" font-size="14" font-weight="bold" lengthAdjust="spacing" textLength="133" x="444.8" y="357.9951">Command Model</text></g><!--cluster Query Model--><g id="cluster_Query Model"><rect fill="none" height="178" rx="2.5" ry="2.5" style="stroke:#181818;stroke-width:1.0;" width="336" x="346.05" y="453"/><rect fill="none" height="10" style="stroke:#181818;stroke-width:1.0;" width="15" x="662.05" y="458"/><rect fill="none" height="2" style="stroke:#181818;stroke-width:1.0;" width="4" x="660.05" y="460"/><rect fill="none" height="2" style="stroke:#181818;stroke-width:1.0;" width="4" x="660.05" y="464"/><text fill="#000000" font-family="sans-serif" font-size="14" font-weight="bold" lengthAdjust="spacing" textLength="102" x="463.05" y="478.9951">Query Model</text></g><!--cluster Domain Model--><g id="cluster_Domain Model"><path d="M524.55,6 L640.55,6 A3.75,3.75 0 0 1 643.05,8.5 L650.05,28.2969 L691.55,28.2969 A2.5,2.5 0 0 1 694.05,30.7969 L694.05,262.5 A2.5,2.5 0 0 1 691.55,265 L524.55,265 A2.5,2.5 0 0 1 522.05,262.5 L522.05,8.5 A2.5,2.5 0 0 1 524.55,6 " fill="none" style="stroke:#000000;stroke-width:1.5;"/><line style="stroke:#000000;stroke-width:1.5;" x1="522.05" x2="650.05" y1="28.2969" y2="28.2969"/><text fill="#000000" font-family="sans-serif" font-size="14" font-weight="bold" lengthAdjust="spacing" textLength="115" x="526.05" y="20.9951">Domain Model</text></g><!--entity Policy--><g id="elem_Policy"><rect fill="#FFC0CB" height="46.2969" rx="2.5" ry="2.5" style="stroke:#181818;stroke-width:0.5;" width="81" x="159.05" y="203"/><rect fill="#FFC0CB" height="10" style="stroke:#181818;stroke-width:0.5;" width="15" x="220.05" y="208"/><rect fill="#FFC0CB" height="2" style="stroke:#181818;stroke-width:0.5;" width="4" x="218.05" y="210"/><rect fill="#FFC0CB" height="2" style="stroke:#181818;stroke-width:0.5;" width="4" x="218.05" y="214"/><text fill="#000000" font-family="sans-serif" font-size="14" lengthAdjust="spacing" textLength="41" x="174.05" y="235.9951">Policy</text></g><!--entity Use Cases--><g id="elem_Use Cases"><path d="M145.05,128.5 L230.05,128.5 A3.75,3.75 0 0 1 232.55,131 L239.55,150.7969 L254.05,150.7969 A2.5,2.5 0 0 1 256.55,153.2969 L256.55,165.2969 A2.5,2.5 0 0 1 254.05,167.7969 L145.05,167.7969 A2.5,2.5 0 0 1 142.55,165.2969 L142.55,131 A2.5,2.5 0 0 1 145.05,128.5 " fill="#F1F1F1" style="stroke:#181818;stroke-width:0.5;"/><line style="stroke:#181818;stroke-width:0.5;" x1="142.55" x2="239.55" y1="150.7969" y2="150.7969"/><text fill="#000000" font-family="sans-serif" font-size="14" lengthAdjust="spacing" textLength="72" x="152.55" y="144.4951">Use Cases</text></g><!--entity Query Dispatcher--><g id="elem_Query Dispatcher"><rect fill="#F1F1F1" height="46.2969" rx="2.5" ry="2.5" style="stroke:#181818;stroke-width:0.5;" width="164" x="117.55" y="509"/><rect fill="#F1F1F1" height="10" style="stroke:#181818;stroke-width:0.5;" width="15" x="261.55" y="514"/><rect fill="#F1F1F1" height="2" style="stroke:#181818;stroke-width:0.5;" width="4" x="259.55" y="516"/><rect fill="#F1F1F1" height="2" style="stroke:#181818;stroke-width:0.5;" width="4" x="259.55" y="520"/><text fill="#000000" font-family="sans-serif" font-size="14" lengthAdjust="spacing" textLength="124" x="132.55" y="541.9951">Query Dispatcher</text></g><!--entity Command Dispatcher--><g id="elem_Command Dispatcher"><rect fill="#F1F1F1" height="46.2969" rx="2.5" ry="2.5" style="stroke:#181818;stroke-width:0.5;" width="195" x="102.05" y="346"/><rect fill="#F1F1F1" height="10" style="stroke:#181818;stroke-width:0.5;" width="15" x="277.05" y="351"/><rect fill="#F1F1F1" height="2" style="stroke:#181818;stroke-width:0.5;" width="4" x="275.05" y="353"/><rect fill="#F1F1F1" height="2" style="stroke:#181818;stroke-width:0.5;" width="4" x="275.05" y="357"/><text fill="#000000" font-family="sans-serif" font-size="14" lengthAdjust="spacing" textLength="155" x="117.05" y="378.9951">Command Dispatcher</text></g><!--entity Commands--><g id="elem_Commands"><rect fill="#ADD8E6" height="46.2969" rx="2.5" ry="2.5" style="stroke:#181818;stroke-width:0.5;" width="121" x="357.05" y="367"/><rect fill="#ADD8E6" height="10" style="stroke:#181818;stroke-width:0.5;" width="15" x="458.05" y="372"/><rect fill="#ADD8E6" height="2" style="stroke:#181818;stroke-width:0.5;" width="4" x="456.05" y="374"/><rect fill="#ADD8E6" height="2" style="stroke:#181818;stroke-width:0.5;" width="4" x="456.05" y="378"/><text fill="#000000" font-family="sans-serif" font-size="14" lengthAdjust="spacing" textLength="81" x="372.05" y="399.9951">Commands</text></g><!--entity Aggregate--><g id="elem_Aggregate"><rect fill="#FFFF00" height="46.2969" rx="2.5" ry="2.5" style="stroke:#181818;stroke-width:0.5;" width="115" x="550.55" y="367"/><rect fill="#FFFF00" height="10" style="stroke:#181818;stroke-width:0.5;" width="15" x="645.55" y="372"/><rect fill="#FFFF00" height="2" style="stroke:#181818;stroke-width:0.5;" width="4" x="643.55" y="374"/><rect fill="#FFFF00" height="2" style="stroke:#181818;stroke-width:0.5;" width="4" x="643.55" y="378"/><text fill="#000000" font-family="sans-serif" font-size="14" lengthAdjust="spacing" textLength="75" x="565.55" y="399.9951">Aggregate</text></g><!--entity Queries--><g id="elem_Queries"><rect fill="#90EE90" height="46.2969" rx="2.5" ry="2.5" style="stroke:#181818;stroke-width:0.5;" width="95" x="370.05" y="569"/><rect fill="#90EE90" height="10" style="stroke:#181818;stroke-width:0.5;" width="15" x="445.05" y="574"/><rect fill="#90EE90" height="2" style="stroke:#181818;stroke-width:0.5;" width="4" x="443.05" y="576"/><rect fill="#90EE90" height="2" style="stroke:#181818;stroke-width:0.5;" width="4" x="443.05" y="580"/><text fill="#000000" font-family="sans-serif" font-size="14" lengthAdjust="spacing" textLength="55" x="385.05" y="601.9951">Queries</text></g><!--entity Projector--><g id="elem_Projector"><rect fill="#90EE90" height="46.2969" rx="2.5" ry="2.5" style="stroke:#181818;stroke-width:0.5;" width="104" x="556.05" y="569"/><rect fill="#90EE90" height="10" style="stroke:#181818;stroke-width:0.5;" width="15" x="640.05" y="574"/><rect fill="#90EE90" height="2" style="stroke:#181818;stroke-width:0.5;" width="4" x="638.05" y="576"/><rect fill="#90EE90" height="2" style="stroke:#181818;stroke-width:0.5;" width="4" x="638.05" y="580"/><text fill="#000000" font-family="sans-serif" font-size="14" lengthAdjust="spacing" textLength="64" x="571.05" y="601.9951">Projector</text></g><!--entity Projection--><g id="elem_Projection"><rect fill="#90EE90" height="46.2969" rx="2.5" ry="2.5" style="stroke:#181818;stroke-width:0.5;" width="111" x="362.05" y="488"/><rect fill="#90EE90" height="10" style="stroke:#181818;stroke-width:0.5;" width="15" x="453.05" y="493"/><rect fill="#90EE90" height="2" style="stroke:#181818;stroke-width:0.5;" width="4" x="451.05" y="495"/><rect fill="#90EE90" height="2" style="stroke:#181818;stroke-width:0.5;" width="4" x="451.05" y="499"/><text fill="#000000" font-family="sans-serif" font-size="14" lengthAdjust="spacing" textLength="71" x="377.05" y="520.9951">Projection</text></g><!--entity Repository--><g id="elem_Repository"><rect fill="#F1F1F1" height="46.2969" rx="2.5" ry="2.5" style="stroke:#181818;stroke-width:0.5;" width="116" x="550.05" y="488"/><rect fill="#F1F1F1" height="10" style="stroke:#181818;stroke-width:0.5;" width="15" x="646.05" y="493"/><rect fill="#F1F1F1" height="2" style="stroke:#181818;stroke-width:0.5;" width="4" x="644.05" y="495"/><rect fill="#F1F1F1" height="2" style="stroke:#181818;stroke-width:0.5;" width="4" x="644.05" y="499"/><text fill="#000000" font-family="sans-serif" font-size="14" lengthAdjust="spacing" textLength="76" x="565.05" y="520.9951">Repository</text></g><!--entity Command--><g id="elem_Command"><rect fill="#FFFF00" height="46.2969" rx="2.5" ry="2.5" style="stroke:#181818;stroke-width:0.5;" width="114" x="551.05" y="122"/><rect fill="#FFFF00" height="10" style="stroke:#181818;stroke-width:0.5;" width="15" x="645.05" y="127"/><rect fill="#FFFF00" height="2" style="stroke:#181818;stroke-width:0.5;" width="4" x="643.05" y="129"/><rect fill="#FFFF00" height="2" style="stroke:#181818;stroke-width:0.5;" width="4" x="643.05" y="133"/><text fill="#000000" font-family="sans-serif" font-size="14" lengthAdjust="spacing" textLength="74" x="566.05" y="154.9951">Command</text></g><!--entity Query--><g id="elem_Query"><rect fill="#90EE90" height="46.2969" rx="2.5" ry="2.5" style="stroke:#181818;stroke-width:0.5;" width="83" x="566.55" y="203"/><rect fill="#90EE90" height="10" style="stroke:#181818;stroke-width:0.5;" width="15" x="629.55" y="208"/><rect fill="#90EE90" height="2" style="stroke:#181818;stroke-width:0.5;" width="4" x="627.55" y="210"/><rect fill="#90EE90" height="2" style="stroke:#181818;stroke-width:0.5;" width="4" x="627.55" y="214"/><text fill="#000000" font-family="sans-serif" font-size="14" lengthAdjust="spacing" textLength="43" x="581.55" y="235.9951">Query</text></g><!--entity Domain Event--><g id="elem_Domain Event"><rect fill="#FFA500" height="46.2969" rx="2.5" ry="2.5" style="stroke:#181818;stroke-width:0.5;" width="140" x="538.05" y="41"/><rect fill="#FFA500" height="10" style="stroke:#181818;stroke-width:0.5;" width="15" x="658.05" y="46"/><rect fill="#FFA500" height="2" style="stroke:#181818;stroke-width:0.5;" width="4" x="656.05" y="48"/><rect fill="#FFA500" height="2" style="stroke:#181818;stroke-width:0.5;" width="4" x="656.05" y="52"/><text fill="#000000" font-family="sans-serif" font-size="14" lengthAdjust="spacing" textLength="100" x="553.05" y="73.9951">Domain Event</text></g><!--link Use Cases to Command Dispatcher--><g id="link_Use Cases_Command Dispatcher"><path d="M142.22,151.15 C107.65,156.51 66.78,169.9 48.05,202.5 C15.49,259.2 90.19,312.9 145.86,343.3 " fill="none" id="Use Cases-to-Command Dispatcher" style="stroke:#181818;stroke-width:1.0;"/><polygon fill="#181818" points="150.51,345.81,144.4852,338.0189,146.1086,343.4378,140.6896,345.0612,150.51,345.81" style="stroke:#181818;stroke-width:1.0;"/></g><!--link Command Dispatcher to Commands--><g id="link_Command Dispatcher_Commands"><path d="M297.18,378.39 C315.61,380.19 334.48,382.02 351.62,383.69 " fill="none" id="Command Dispatcher-to-Commands" style="stroke:#181818;stroke-width:1.0;"/><polygon fill="#181818" points="356.88,384.2,348.2965,379.3705,351.9022,383.7293,347.5434,387.335,356.88,384.2" style="stroke:#181818;stroke-width:1.0;"/></g><!--link Commands to Aggregate--><g id="link_Commands_Aggregate"><path d="M478.2,390 C499.57,390 523.69,390 545.24,390 " fill="none" id="Commands-to-Aggregate" style="stroke:#181818;stroke-width:1.0;"/><polygon fill="#181818" points="550.37,390,541.37,386,545.37,390,541.37,394,550.37,390" style="stroke:#181818;stroke-width:1.0;"/></g><!--link Aggregate to Domain Event--><g id="link_Aggregate_Domain Event"><path d="M581.59,366.91 C554.15,341.03 512.93,296.27 496.05,247.5 C477.75,194.58 474.26,173.09 496.05,121.5 C503.09,104.84 517.28,92.95 533.25,84.48 " fill="none" id="Aggregate-to-Domain Event" style="stroke:#181818;stroke-width:1.0;"/><polygon fill="#181818" points="537.8,82.18,527.9637,82.6775,533.3394,84.4389,531.578,89.8146,537.8,82.18" style="stroke:#181818;stroke-width:1.0;"/></g><!--link Aggregate to Command--><g id="link_Aggregate_Command"><path d="M581.59,366.91 C554.15,341.03 512.93,296.27 496.05,247.5 C489.52,228.6 488.27,220.92 496.05,202.5 C500.4,192.22 504.76,191.18 514.05,185 C523.88,178.47 534.94,172.63 545.93,167.57 " fill="none" id="Aggregate-to-Command" style="stroke:#181818;stroke-width:1.0;"/><polygon fill="#181818" points="550.64,165.45,540.7913,165.5071,546.0828,167.5072,544.0828,172.7987,550.64,165.45" style="stroke:#181818;stroke-width:1.0;"/></g><!--link Use Cases to Query Dispatcher--><g id="link_Use Cases_Query Dispatcher"><path d="M142.22,151.15 C107.65,156.51 66.78,169.9 48.05,202.5 C6,275.73 14.14,315.17 48.05,392.5 C69.79,442.06 118.78,481.78 155.2,505.97 " fill="none" id="Use Cases-to-Query Dispatcher" style="stroke:#181818;stroke-width:1.0;"/><polygon fill="#181818" points="159.57,508.84,154.2346,500.5615,155.3879,506.0995,149.8499,507.2528,159.57,508.84" style="stroke:#181818;stroke-width:1.0;"/></g><!--link Query Dispatcher to Queries--><g id="link_Query Dispatcher_Queries"><path d="M281.6,554.51 C309.54,562.27 340.06,570.75 365,577.68 " fill="none" id="Query Dispatcher-to-Queries" style="stroke:#181818;stroke-width:1.0;"/><polygon fill="#181818" points="369.91,579.04,362.3156,572.769,365.0938,577.6966,360.1662,580.4748,369.91,579.04" style="stroke:#181818;stroke-width:1.0;"/></g><!--link Domain Event to Projector--><g id="link_Domain Event_Projector"><path d="M537.8,82.18 C520.01,90.75 503.75,103.28 496.05,121.5 C478.2,163.77 478.2,492.23 496.05,534.5 C505.66,557.24 528.6,571.11 551.23,579.51 " fill="none" id="Domain Event-to-Projector" style="stroke:#181818;stroke-width:1.0;"/><polygon fill="#181818" points="556.05,581.22,548.904,574.4425,551.3374,579.5492,546.2307,581.9826,556.05,581.22" style="stroke:#181818;stroke-width:1.0;"/></g><!--link Domain Event to Policy--><g id="link_Domain Event_Policy"><path d="M549.33,87 C467.37,119.67 319.04,178.78 245.04,208.27 " fill="none" id="Domain Event-to-Policy" style="stroke:#181818;stroke-width:1.0;"/><polygon fill="#181818" points="240.27,210.17,250.1108,210.5675,244.9173,208.3254,247.1594,203.1318,240.27,210.17" style="stroke:#181818;stroke-width:1.0;"/></g><!--link Policy to Commands--><g id="link_Policy_Commands"><path d="M231.04,249.15 C270.84,279.37 340.33,332.12 382.03,363.78 " fill="none" id="Policy-to-Commands" style="stroke:#181818;stroke-width:1.0;"/><polygon fill="#181818" points="386.22,366.97,381.4741,358.34,382.2389,363.9449,376.634,364.7098,386.22,366.97" style="stroke:#181818;stroke-width:1.0;"/></g><!--link Queries to Projection--><g id="link_Queries_Projection"><path d="M417.55,568.9 C417.55,559.02 417.55,549.13 417.55,539.24 " fill="none" id="Queries-to-Projection" style="stroke:#181818;stroke-width:1.0;"/><polygon fill="#181818" points="417.55,534.07,413.55,543.07,417.55,539.07,421.55,543.07,417.55,534.07" style="stroke:#181818;stroke-width:1.0;"/></g><!--link Projection to Repository--><g id="link_Projection_Repository"><path d="M473.08,511 C495.52,511 521.64,511 544.82,511 " fill="none" id="Projection-to-Repository" style="stroke:#181818;stroke-width:1.0;"/><polygon fill="#181818" points="550.03,511,541.03,507,545.03,511,541.03,515,550.03,511" style="stroke:#181818;stroke-width:1.0;"/></g><!--link Projector to Repository--><g id="link_Projector_Repository"><path d="M608.05,568.9 C608.05,559.02 608.05,549.13 608.05,539.24 " fill="none" id="Projector-to-Repository" style="stroke:#181818;stroke-width:1.0;"/><polygon fill="#181818" points="608.05,534.07,604.05,543.07,608.05,539.07,612.05,543.07,608.05,534.07" style="stroke:#181818;stroke-width:1.0;"/></g><!--link Repository to Query--><g id="link_Repository_Query"><path d="M567.23,487.93 C543.09,471.71 514.81,447.53 502.05,417.33 C492.6,394.95 494.19,385.65 502.05,362.67 C517.07,318.8 552.54,278.13 578.32,252.76 " fill="none" id="Repository-to-Query" style="stroke:#181818;stroke-width:1.0;"/><polygon fill="#181818" points="582.05,249.13,572.8224,252.5725,578.4789,252.6296,578.4218,258.2862,582.05,249.13" style="stroke:#181818;stroke-width:1.0;"/></g><!--SRC=[VL91RiCW4Bpp2fIUyuL8KT9ZfRHIJvOFrDuI6imY8Aciod_lOXSRbxI-UMTtcDbP3U-11-HEoNFWhNBG18M6CIkQYv30DtjhjMf4h6xu5-FqLIUaKb_p1wlCPIpDxQyU-45uy1isCDPWPz602SJJ2Xl0pHpFLt0zFoflHMZEuEgfVC2k4wPT0IEIKQMU9sn19y9ysfCq7HszwIiiw5vA1r848BW7hV5pn8RYWKbRIH_h2cPsOWEpe2U77xG-TF_ZjCW_6bx0ebT4qDT9s90bSSHEABEMbHol7KtBBL-fVYWURsIJO7J2I8YFL7DkDT_kxiTmhyYtMRTVUY9D6w5bvopVVuHMOWeq6IkrbPTJbYPTAIz696lh8xm4Li2x-SXfD9txRw_pEMHaCTquacKzZkNPvfTIODdFuhR-1W00]--></g></svg>