<?xml version="1.0" encoding="UTF-8" standalone="no"?><svg xmlns="http://www.w3.org/2000/svg" xmlns:xlink="http://www.w3.org/1999/xlink" contentStyleType="text/css" height="598px" preserveAspectRatio="none" style="width:739px;height:598px;background:#FFFFFF;" version="1.1" viewBox="0 0 739 598" width="739px" zoomAndPan="magnify"><defs/><g><!--cluster Adapter--><g id="cluster_Adapter"><rect fill="none" height="178" rx="2.5" ry="2.5" style="stroke:#181818;stroke-width:1.0;" width="227" x="106.56" y="7"/><rect fill="none" height="10" style="stroke:#181818;stroke-width:1.0;" width="15" x="313.56" y="12"/><rect fill="none" height="2" style="stroke:#181818;stroke-width:1.0;" width="4" x="311.56" y="14"/><rect fill="none" height="2" style="stroke:#181818;stroke-width:1.0;" width="4" x="311.56" y="18"/><text fill="#000000" font-family="sans-serif" font-size="14" font-weight="bold" lengthAdjust="spacing" textLength="64" x="188.06" y="32.9951">Adapter</text></g><!--cluster Application--><g id="cluster_Application"><rect fill="none" height="383" rx="2.5" ry="2.5" style="stroke:#181818;stroke-width:1.0;" width="612" x="121.56" y="209"/><rect fill="none" height="10" style="stroke:#181818;stroke-width:1.0;" width="15" x="713.56" y="214"/><rect fill="none" height="2" style="stroke:#181818;stroke-width:1.0;" width="4" x="711.56" y="216"/><rect fill="none" height="2" style="stroke:#181818;stroke-width:1.0;" width="4" x="711.56" y="220"/><text fill="#000000" font-family="sans-serif" font-size="14" font-weight="bold" lengthAdjust="spacing" textLength="90" x="382.56" y="234.9951">Application</text></g><!--cluster Command Model--><g id="cluster_Command Model"><rect fill="none" height="178" rx="2.5" ry="2.5" style="stroke:#181818;stroke-width:1.0;" width="149" x="145.56" y="390"/><rect fill="none" height="10" style="stroke:#181818;stroke-width:1.0;" width="15" x="274.56" y="395"/><rect fill="none" height="2" style="stroke:#181818;stroke-width:1.0;" width="4" x="272.56" y="397"/><rect fill="none" height="2" style="stroke:#181818;stroke-width:1.0;" width="4" x="272.56" y="401"/><text fill="#000000" font-family="sans-serif" font-size="14" font-weight="bold" lengthAdjust="spacing" textLength="133" x="153.56" y="415.9951">Command Model</text></g><!--cluster Query Model--><g id="cluster_Query Model"><rect fill="none" height="178" rx="2.5" ry="2.5" style="stroke:#181818;stroke-width:1.0;" width="333.5" x="376.06" y="252"/><rect fill="none" height="10" style="stroke:#181818;stroke-width:1.0;" width="15" x="689.56" y="257"/><rect fill="none" height="2" style="stroke:#181818;stroke-width:1.0;" width="4" x="687.56" y="259"/><rect fill="none" height="2" style="stroke:#181818;stroke-width:1.0;" width="4" x="687.56" y="263"/><text fill="#000000" font-family="sans-serif" font-size="14" font-weight="bold" lengthAdjust="spacing" textLength="102" x="491.81" y="277.9951">Query Model</text></g><!--entity Query Dispatcher--><g id="elem_Query Dispatcher"><rect fill="#F1F1F1" height="46.2969" rx="2.5" ry="2.5" style="stroke:#181818;stroke-width:0.5;" width="164" x="138.06" y="42"/><rect fill="#F1F1F1" height="10" style="stroke:#181818;stroke-width:0.5;" width="15" x="282.06" y="47"/><rect fill="#F1F1F1" height="2" style="stroke:#181818;stroke-width:0.5;" width="4" x="280.06" y="49"/><rect fill="#F1F1F1" height="2" style="stroke:#181818;stroke-width:0.5;" width="4" x="280.06" y="53"/><text fill="#000000" font-family="sans-serif" font-size="14" lengthAdjust="spacing" textLength="124" x="153.06" y="74.9951">Query Dispatcher</text></g><!--entity Command Dispatcher--><g id="elem_Command Dispatcher"><rect fill="#F1F1F1" height="46.2969" rx="2.5" ry="2.5" style="stroke:#181818;stroke-width:0.5;" width="195" x="122.56" y="123"/><rect fill="#F1F1F1" height="10" style="stroke:#181818;stroke-width:0.5;" width="15" x="297.56" y="128"/><rect fill="#F1F1F1" height="2" style="stroke:#181818;stroke-width:0.5;" width="4" x="295.56" y="130"/><rect fill="#F1F1F1" height="2" style="stroke:#181818;stroke-width:0.5;" width="4" x="295.56" y="134"/><text fill="#000000" font-family="sans-serif" font-size="14" lengthAdjust="spacing" textLength="155" x="137.56" y="155.9951">Command Dispatcher</text></g><!--entity Domain Event--><g id="elem_Domain Event"><rect fill="#FFA500" height="46.2969" rx="2.5" ry="2.5" style="stroke:#181818;stroke-width:0.5;" width="140" x="377.56" y="449"/><rect fill="#FFA500" height="10" style="stroke:#181818;stroke-width:0.5;" width="15" x="497.56" y="454"/><rect fill="#FFA500" height="2" style="stroke:#181818;stroke-width:0.5;" width="4" x="495.56" y="456"/><rect fill="#FFA500" height="2" style="stroke:#181818;stroke-width:0.5;" width="4" x="495.56" y="460"/><text fill="#000000" font-family="sans-serif" font-size="14" lengthAdjust="spacing" textLength="100" x="392.56" y="481.9951">Domain Event</text></g><!--entity Policy--><g id="elem_Policy"><rect fill="#FFC0CB" height="46.2969" rx="2.5" ry="2.5" style="stroke:#181818;stroke-width:0.5;" width="81" x="407.06" y="530"/><rect fill="#FFC0CB" height="10" style="stroke:#181818;stroke-width:0.5;" width="15" x="468.06" y="535"/><rect fill="#FFC0CB" height="2" style="stroke:#181818;stroke-width:0.5;" width="4" x="466.06" y="537"/><rect fill="#FFC0CB" height="2" style="stroke:#181818;stroke-width:0.5;" width="4" x="466.06" y="541"/><text fill="#000000" font-family="sans-serif" font-size="14" lengthAdjust="spacing" textLength="41" x="422.06" y="562.9951">Policy</text></g><!--entity Command--><g id="elem_Command"><rect fill="#ADD8E6" height="46.2969" rx="2.5" ry="2.5" style="stroke:#181818;stroke-width:0.5;" width="114" x="163.06" y="506"/><rect fill="#ADD8E6" height="10" style="stroke:#181818;stroke-width:0.5;" width="15" x="257.06" y="511"/><rect fill="#ADD8E6" height="2" style="stroke:#181818;stroke-width:0.5;" width="4" x="255.06" y="513"/><rect fill="#ADD8E6" height="2" style="stroke:#181818;stroke-width:0.5;" width="4" x="255.06" y="517"/><text fill="#000000" font-family="sans-serif" font-size="14" lengthAdjust="spacing" textLength="74" x="178.06" y="538.9951">Command</text></g><!--entity Aggregate--><g id="elem_Aggregate"><rect fill="#FFFF00" height="46.2969" rx="2.5" ry="2.5" style="stroke:#181818;stroke-width:0.5;" width="115" x="162.56" y="425"/><rect fill="#FFFF00" height="10" style="stroke:#181818;stroke-width:0.5;" width="15" x="257.56" y="430"/><rect fill="#FFFF00" height="2" style="stroke:#181818;stroke-width:0.5;" width="4" x="255.56" y="432"/><rect fill="#FFFF00" height="2" style="stroke:#181818;stroke-width:0.5;" width="4" x="255.56" y="436"/><text fill="#000000" font-family="sans-serif" font-size="14" lengthAdjust="spacing" textLength="75" x="177.56" y="457.9951">Aggregate</text></g><!--entity Query--><g id="elem_Query"><rect fill="#90EE90" height="46.2969" rx="2.5" ry="2.5" style="stroke:#181818;stroke-width:0.5;" width="83" x="406.06" y="368"/><rect fill="#90EE90" height="10" style="stroke:#181818;stroke-width:0.5;" width="15" x="469.06" y="373"/><rect fill="#90EE90" height="2" style="stroke:#181818;stroke-width:0.5;" width="4" x="467.06" y="375"/><rect fill="#90EE90" height="2" style="stroke:#181818;stroke-width:0.5;" width="4" x="467.06" y="379"/><text fill="#000000" font-family="sans-serif" font-size="14" lengthAdjust="spacing" textLength="43" x="421.06" y="400.9951">Query</text></g><!--entity Projector--><g id="elem_Projector"><rect fill="#90EE90" height="46.2969" rx="2.5" ry="2.5" style="stroke:#181818;stroke-width:0.5;" width="104" x="583.56" y="368"/><rect fill="#90EE90" height="10" style="stroke:#181818;stroke-width:0.5;" width="15" x="667.56" y="373"/><rect fill="#90EE90" height="2" style="stroke:#181818;stroke-width:0.5;" width="4" x="665.56" y="375"/><rect fill="#90EE90" height="2" style="stroke:#181818;stroke-width:0.5;" width="4" x="665.56" y="379"/><text fill="#000000" font-family="sans-serif" font-size="14" lengthAdjust="spacing" textLength="64" x="598.56" y="400.9951">Projector</text></g><!--entity Projection--><g id="elem_Projection"><rect fill="#90EE90" height="46.2969" rx="2.5" ry="2.5" style="stroke:#181818;stroke-width:0.5;" width="111" x="392.06" y="287"/><rect fill="#90EE90" height="10" style="stroke:#181818;stroke-width:0.5;" width="15" x="483.06" y="292"/><rect fill="#90EE90" height="2" style="stroke:#181818;stroke-width:0.5;" width="4" x="481.06" y="294"/><rect fill="#90EE90" height="2" style="stroke:#181818;stroke-width:0.5;" width="4" x="481.06" y="298"/><text fill="#000000" font-family="sans-serif" font-size="14" lengthAdjust="spacing" textLength="71" x="407.06" y="319.9951">Projection</text></g><!--entity Repository--><g id="elem_Repository"><rect fill="#F1F1F1" height="46.2969" rx="2.5" ry="2.5" style="stroke:#181818;stroke-width:0.5;" width="116" x="577.56" y="287"/><rect fill="#F1F1F1" height="10" style="stroke:#181818;stroke-width:0.5;" width="15" x="673.56" y="292"/><rect fill="#F1F1F1" height="2" style="stroke:#181818;stroke-width:0.5;" width="4" x="671.56" y="294"/><rect fill="#F1F1F1" height="2" style="stroke:#181818;stroke-width:0.5;" width="4" x="671.56" y="298"/><text fill="#000000" font-family="sans-serif" font-size="14" lengthAdjust="spacing" textLength="76" x="592.56" y="319.9951">Repository</text></g><!--link Query Dispatcher to Query--><g id="link_Query Dispatcher_Query"><path d="M302.26,77.9 C317.31,83.84 331.45,92.48 341.56,105 C410.34,190.23 306.34,259.52 368.06,350 C376.09,361.77 388.58,370.38 401.26,376.59 " fill="none" id="Query Dispatcher-to-Query" style="stroke:#181818;stroke-width:1.0;"/><polygon fill="#181818" points="405.93,378.77,399.4672,371.3382,401.3994,376.6548,396.0828,378.5871,405.93,378.77" style="stroke:#181818;stroke-width:1.0;"/></g><!--link Command Dispatcher to Command--><g id="link_Command Dispatcher_Command"><path d="M193.88,169.17 C135.79,223.47 6,362.59 68.56,471.5 C86.45,502.65 124.18,517.03 157.5,523.62 " fill="none" id="Command Dispatcher-to-Command" style="stroke:#181818;stroke-width:1.0;"/><polygon fill="#181818" points="162.81,524.61,154.7092,519.0085,157.8969,523.6817,153.2238,526.8694,162.81,524.61" style="stroke:#181818;stroke-width:1.0;"/></g><!--link Command to Aggregate--><g id="link_Command_Aggregate"><path d="M220.06,505.9 C220.06,496.02 220.06,486.13 220.06,476.24 " fill="none" id="Command-to-Aggregate" style="stroke:#181818;stroke-width:1.0;"/><polygon fill="#181818" points="220.06,471.07,216.06,480.07,220.06,476.07,224.06,480.07,220.06,471.07" style="stroke:#181818;stroke-width:1.0;"/></g><!--link Aggregate to Domain Event--><g id="link_Aggregate_Domain Event"><path d="M277.67,454.03 C306.28,457.07 341.37,460.8 372.14,464.08 " fill="none" id="Aggregate-to-Domain Event" style="stroke:#181818;stroke-width:1.0;"/><polygon fill="#181818" points="377.43,464.64,368.9033,459.7109,372.458,464.1114,368.0575,467.666,377.43,464.64" style="stroke:#181818;stroke-width:1.0;"/></g><!--link Domain Event to Projector--><g id="link_Domain Event_Projector"><path d="M501.86,448.79 C525.91,438.31 554.33,425.94 578.68,415.33 " fill="none" id="Domain Event-to-Projector" style="stroke:#181818;stroke-width:1.0;"/><polygon fill="#181818" points="583.49,413.24,573.6414,413.1715,578.9069,415.2388,576.8395,420.5044,583.49,413.24" style="stroke:#181818;stroke-width:1.0;"/></g><!--link Domain Event to Policy--><g id="link_Domain Event_Policy"><path d="M447.56,495.07 C447.56,504.96 447.56,514.84 447.56,524.73 " fill="none" id="Domain Event-to-Policy" style="stroke:#181818;stroke-width:1.0;"/><polygon fill="#181818" points="447.56,529.9,451.56,520.9,447.56,524.9,443.56,520.9,447.56,529.9" style="stroke:#181818;stroke-width:1.0;"/></g><!--link Policy to Command--><g id="link_Policy_Command"><path d="M406.77,548.77 C372.33,545.1 321.95,539.74 282.36,535.52 " fill="none" id="Policy-to-Command" style="stroke:#181818;stroke-width:1.0;"/><polygon fill="#181818" points="277.09,534.96,285.6167,539.8891,282.062,535.4886,286.4625,531.934,277.09,534.96" style="stroke:#181818;stroke-width:1.0;"/></g><!--link Query to Projection--><g id="link_Query_Projection"><path d="M447.56,367.9 C447.56,358.02 447.56,348.13 447.56,338.24 " fill="none" id="Query-to-Projection" style="stroke:#181818;stroke-width:1.0;"/><polygon fill="#181818" points="447.56,333.07,443.56,342.07,447.56,338.07,451.56,342.07,447.56,333.07" style="stroke:#181818;stroke-width:1.0;"/></g><!--link Projection to Repository--><g id="link_Projection_Repository"><path d="M503.11,310 C524.83,310 549.96,310 572.38,310 " fill="none" id="Projection-to-Repository" style="stroke:#181818;stroke-width:1.0;"/><polygon fill="#181818" points="577.42,310,568.42,306,572.42,310,568.42,314,577.42,310" style="stroke:#181818;stroke-width:1.0;"/></g><!--link Projector to Repository--><g id="link_Projector_Repository"><path d="M635.56,367.9 C635.56,358.02 635.56,348.13 635.56,338.24 " fill="none" id="Projector-to-Repository" style="stroke:#181818;stroke-width:1.0;"/><polygon fill="#181818" points="635.56,333.07,631.56,342.07,635.56,338.07,639.56,342.07,635.56,333.07" style="stroke:#181818;stroke-width:1.0;"/></g><!--SRC=[VP71JiCm38RlUGfhE_SL9aqRHwJ1jUeXj2OBf76KPKmLshlZf0f9AP1ZVlltxyy6NmC40g_LES2WFVP1anMYfz6HHHjWin-a2-Wty2c0N_jqHJ_1KL-S3FqPVJT_7sWSfHqMmdrfv9pHlOm3ebbgg-Hiy4W3cZojjkvWQsBE5tF58kwLygXaG9OdD8PkIRkl_EVSQ_VqdxtP2stHJfxU60dv_tNUw8-2PtHqqMmmTNMizaYZr1OUFZWQjvANLirBjITYIZ6Gq_PTH8PhvD2aYpMx75_ynh-goWY540Ld50e-KQDiehO8oOtBqAca05h9k-zLk3KljSYIqLT6aMGihxYcEJN7-Ye_jIy0]--></g></svg>